<?xml version="1.0" standalone="no"?><!DOCTYPE svg PUBLIC "-//W3C//DTD SVG 1.1//EN" "http://www.w3.org/Graphics/SVG/1.1/DTD/svg11.dtd"><svg t="1781921788901" class="icon" viewBox="0 0 1024 1024" version="1.1" xmlns="http://www.w3.org/2000/svg" p-id="7099" xmlns:xlink="http://www.w3.org/1999/xlink" width="200" height="200"><path d="M910.222222 0a113.777778 113.777778 0 0 1 113.777778 113.777778v796.444444a113.777778 113.777778 0 0 1-113.777778 113.777778H113.777778a113.777778 113.777778 0 0 1-113.777778-113.777778V113.777778a113.777778 113.777778 0 0 1 113.777778-113.777778h796.444444z m0 56.888889H113.777778a56.888889 56.888889 0 0 0-56.888889 56.888889v796.444444a56.888889 56.888889 0 0 0 56.888889 56.888889h796.444444a56.888889 56.888889 0 0 0 56.888889-56.888889V113.777778a56.888889 56.888889 0 0 0-56.888889-56.888889zM377.059556 341.333333c43.008 0 76.8 8.704 100.864 26.624 25.6 18.944 40.448 48.64 44.032 88.576H462.563556c-5.12-22.528-14.848-38.912-28.16-48.64-13.312-10.24-33.792-14.848-60.416-14.848-23.04 0-40.448 3.072-52.736 9.728-15.36 7.68-22.528 20.48-22.528 37.888 0 15.36 8.192 28.16 25.6 37.376 5.973333 3.185778 20.024889 8.533333 41.813333 15.815111l45.966222 14.791112c35.271111 11.605333 58.709333 21.048889 70.428445 27.761777 31.744 18.944 47.616 45.056 47.616 78.848 0 32.768-12.8 58.88-38.4 77.824-25.6 18.432-61.952 28.16-108.544 28.16-45.056 0-80.384-8.704-105.472-26.112-30.72-21.504-47.616-55.296-50.176-101.888h59.392c4.096 27.648 13.824 47.616 29.696 59.392 14.336 10.24 36.352 15.872 66.56 15.872 26.624 0 48.128-4.608 63.488-13.312 15.36-9.216 23.552-20.992 23.552-36.352 0-19.456-11.776-34.816-34.304-46.08a324.778667 324.778667 0 0 0-33.735112-12.288l-37.432888-11.776c-45.056-14.336-73.216-24.576-83.968-30.72-28.16-16.896-41.984-41.472-41.984-73.728 0-32.256 13.312-57.856 40.96-76.288C305.379556 350.037333 337.635556 341.333333 377.059556 341.333333z m257.536 0v143.36c9.728-14.848 22.016-25.6 36.352-32.768 12.8-6.656 27.648-9.728 44.544-9.728 32.256 0 56.32 9.216 72.192 28.16 14.848 17.92 22.528 44.544 22.528 79.872v163.84h-58.368v-153.6c0-22.528-4.608-39.936-13.312-51.712-10.24-12.8-25.088-18.944-45.056-18.944a49.834667 49.834667 0 0 0-43.008 21.504c-10.752 14.336-15.872 32.256-15.872 54.784v147.968h-58.368V341.333333h58.368z" fill="#484E71" p-id="7100"></path></svg>