<?xml version="1.0" standalone="no"?><!DOCTYPE svg PUBLIC "-//W3C//DTD SVG 1.1//EN" "http://www.w3.org/Graphics/SVG/1.1/DTD/svg11.dtd"><svg t="1782353455956" class="icon" viewBox="0 0 1024 1024" version="1.1" xmlns="http://www.w3.org/2000/svg" p-id="7007" xmlns:xlink="http://www.w3.org/1999/xlink" width="200" height="200"><path d="M455.373 0.614c-0.205 0.205-7.475 0.615-16.18 0.82-8.703 0.307-15.769 0.512-15.769 0.614 0 0.102-4.608 0.307-10.24 0.512-14.643 0.512-49.05 2.867-60.928 4.096-2.56 0.307-7.578 0.717-11.264 1.024-3.686 0.307-8.909 0.82-11.776 1.024-2.765 0.307-6.042 0.717-7.27 0.922-1.23 0.204-5.837 0.716-10.24 1.126-4.404 0.41-9.012 0.922-10.138 1.126-2.355 0.512-7.987 1.23-14.848 1.844-2.56 0.307-4.608 0.614-4.608 0.614 0 0.102-1.638 0.41-3.584 0.614-7.373 1.024-8.704 1.23-8.704 1.434 0 0.102-1.331 0.307-3.072 0.512-5.12 0.512-11.674 1.536-25.6 4.096-18.432 3.38-17.92 3.277-23.347 4.506-2.663 0.614-6.554 1.433-8.5 1.74-2.047 0.308-4.505 0.82-5.427 1.024-1.638 0.41-17.305 4.199-21.094 5.018-4.3 1.024-17.818 5.018-26.624 7.782-5.018 1.639-9.933 3.175-10.752 3.38-1.843 0.512-16.589 6.041-20.992 7.884-1.638 0.717-3.277 1.332-3.584 1.332-2.048 0.512-24.576 12.39-24.576 13.107 0 0.41-0.614 0.819-1.331 0.819s-2.355 0.922-3.584 2.048-2.663 2.048-3.175 2.048c-1.843 0-14.13 12.902-17.1 17.92-3.584 6.144-3.892 7.578-3.994 15.36 0 11.162 5.427 18.944 26.214 37.376 3.482 3.072 7.68 6.963 9.421 8.5 1.741 1.535 5.632 5.12 8.807 7.884 3.174 2.765 8.09 7.168 10.854 9.728 2.867 2.56 7.578 6.86 10.547 9.523 3.072 2.663 7.27 6.451 9.319 8.397 2.15 1.946 7.27 6.554 11.366 10.24s8.704 7.782 10.342 9.216c7.885 7.168 17.818 16.18 20.378 18.432 1.536 1.434 6.144 5.53 10.24 9.216 4.198 3.686 8.5 7.578 9.728 8.704 1.126 1.126 5.734 5.222 10.24 9.216 4.506 3.891 8.806 7.885 9.728 8.704 0.922 0.82 5.018 4.506 9.114 8.192 4.096 3.686 8.908 7.987 10.752 9.728 1.843 1.638 5.324 4.813 7.884 7.066a596.83 596.83 0 0 1 9.114 8.192c4.096 3.686 22.118 19.968 25.19 22.63 2.048 1.74 17.101 15.258 18.842 16.896 0.922 0.82 5.53 5.018 10.24 9.216s9.318 8.397 10.24 9.216c3.277 3.072 18.944 17.306 21.094 19.149 1.844 1.536 10.138 9.011 19.354 17.203 1.229 1.126 6.246 5.632 11.06 10.035 4.812 4.403 9.83 9.011 11.16 10.138 2.049 1.74 11.982 10.65 19.866 17.715 1.23 1.126 5.837 5.222 10.24 9.216 4.301 3.891 9.114 8.294 10.548 9.626 10.24 9.523 36.659 25.088 41.164 24.268 0.308-0.102 1.332 0.512 2.253 1.332 1.024 0.716 1.741 1.024 1.741 0.716 0-0.41 0.82-0.204 1.843 0.308 1.946 1.024 5.53 1.945 10.752 2.764 1.639 0.205 3.38 0.615 3.891 0.922 1.23 0.82 12.288 1.74 21.402 1.843 11.571 0.103 20.89-1.024 32.256-3.891 9.728-2.458 27.238-9.318 27.955-10.957 0.205-0.512 0.82-0.819 1.434-0.819 1.536 0 17.203-10.445 17.203-11.469 0-0.41 0.41-0.819 1.024-0.819 0.512 0 2.048-1.024 3.277-2.355 1.331-1.229 5.222-4.71 8.499-7.68 10.138-9.114 21.094-18.944 24.064-21.709 3.891-3.686 18.534-16.896 21.094-19.149 3.175-2.662 20.378-18.33 32.768-29.696 2.356-2.15 7.885-7.168 12.288-11.059 10.445-9.42 18.432-16.691 22.119-20.275 1.638-1.536 3.072-2.765 3.379-2.765 0.205 0 2.15-1.74 4.403-3.891 2.253-2.048 5.632-5.223 7.475-6.963 6.861-6.144 16.999-15.36 26.522-23.962 5.222-4.813 10.752-9.83 12.186-11.162 1.433-1.228 6.041-5.427 10.24-9.216 4.198-3.686 9.113-8.192 10.854-9.83 1.843-1.74 6.246-5.632 9.728-8.704 3.584-3.072 8.192-7.27 10.24-9.216 2.048-1.946 7.066-6.554 11.162-10.138 4.096-3.686 8.704-7.782 10.24-9.216 1.638-1.433 6.246-5.632 10.24-9.318 4.096-3.686 9.113-8.294 11.264-10.24l11.878-10.752c4.403-3.994 9.523-8.602 11.264-10.24 1.843-1.74 6.042-5.427 9.216-8.192 3.277-2.867 8.192-7.27 10.854-10.035 2.663-2.663 5.018-4.813 5.325-4.813 0.205 0 2.56-1.946 5.12-4.403 7.27-6.759 19.251-17.613 23.552-21.3 9.626-8.294 22.426-21.913 22.835-24.37 0-0.308 0.82-2.253 1.741-4.199 2.458-5.53 1.741-15.667-1.74-22.426-2.97-5.632-15.565-18.944-19.15-20.07-1.023-0.41-1.945-1.126-1.945-1.638s-0.614-0.922-1.434-0.922c-0.819 0-1.638-0.307-1.843-0.82-0.921-2.15-25.19-13.926-40.755-19.558-6.451-2.457-12.493-4.608-13.312-4.915-0.82-0.307-1.946-0.717-2.56-0.819-1.946-0.512-16.384-4.813-17.92-5.325-1.946-0.819-3.072-1.126-5.94-1.74a84.453 84.453 0 0 1-4.3-1.127c-1.024-0.307-2.765-0.82-3.789-1.024-1.024-0.205-4.608-1.126-8.09-1.946-3.481-0.819-7.372-1.74-8.703-2.048-1.332-0.307-6.861-1.433-12.186-2.662-5.325-1.126-10.854-2.355-12.288-2.56-1.434-0.307-3.686-0.717-5.12-1.024-1.434-0.307-4.198-0.82-6.144-1.126-1.946-0.41-4.506-0.922-5.632-1.127-1.126-0.205-3.38-0.614-5.12-0.819-1.638-0.205-6.042-0.922-9.728-1.536-6.86-1.229-7.27-1.331-15.872-2.56-2.765-0.307-6.246-0.82-7.68-1.024a347.917 347.917 0 0 0-15.36-2.048c-2.56-0.307-5.94-0.82-7.68-1.024-1.638-0.307-4.915-0.717-7.168-0.922-2.253-0.307-6.86-0.716-10.24-1.126-3.38-0.307-7.782-0.82-9.728-1.024-1.946-0.205-3.584-0.41-3.584-0.512 0 0-2.765-0.307-6.144-0.512-6.554-0.41-15.565-1.126-25.6-2.048-10.342-1.024-27.853-2.15-47.616-3.072-4.198-0.205-7.68-0.41-7.68-0.512 0-0.922-147.354-2.355-148.275-1.434z" fill="#E94600" p-id="7008"></path><path d="M66.56 320.41c0 39.424 0.307 71.782 0.82 71.782 0.409 0 3.276 2.458 6.45 5.427 4.71 4.403 13.415 12.288 22.426 20.173 1.536 1.434 14.643 13.21 21.504 19.456 1.536 1.434 6.246 5.53 10.342 9.216 4.096 3.686 8.602 7.782 10.036 9.114 3.481 3.072 16.69 15.052 19.25 17.305 1.127 0.922 5.633 5.018 10.138 9.114 4.404 3.993 9.012 8.192 10.24 9.216 3.994 3.481 18.023 16.179 21.812 19.66 3.584 3.277 15.564 14.03 19.865 17.818 3.482 2.97 18.227 16.384 22.323 20.173 2.15 1.946 6.35 5.837 9.524 8.5 3.072 2.662 6.656 5.938 7.987 7.167 8.294 7.475 29.593 26.727 32.563 29.389 4.915 4.3 16.998 15.155 19.456 17.408 5.12 4.71 19.763 17.818 23.86 21.504 2.252 1.946 5.938 5.325 8.089 7.373 2.253 2.15 4.198 3.891 4.403 3.891 0.205 0 2.355 1.946 4.915 4.403 2.458 2.355 6.963 6.349 9.83 8.909 2.97 2.56 7.066 6.246 9.217 8.192 2.048 1.946 7.168 6.554 11.366 10.24 4.096 3.686 8.704 7.782 10.24 9.216 1.536 1.434 6.144 5.53 10.24 9.216 4.096 3.686 8.704 7.782 10.24 9.216 1.536 1.434 4.608 4.198 6.758 6.144 4.301 3.891 16.896 14.438 21.504 18.125 6.759 5.325 32.154 16.589 41.063 18.33 0.614 0.102 3.584 0.716 6.656 1.433 4.403 0.922 19.558 2.355 23.859 2.253 10.24-0.41 18.74-1.331 24.576-2.765 3.994-0.922 8.09-1.843 9.114-2.048 4.198-0.922 12.083-3.891 18.022-6.758 3.38-1.639 6.656-2.97 7.168-2.97 0.614 0 1.024-0.512 1.024-1.024 0-0.614 0.512-1.024 1.229-1.024 1.433 0 15.155-9.216 19.558-13.21 1.741-1.638 4.301-3.89 5.427-4.915 2.765-2.355 17.92-16.077 22.426-20.275 4.915-4.608 17.92-16.282 22.016-19.866 1.946-1.74 3.891-3.174 4.403-3.174 0.41 0 0.717-0.717 0.717-1.536s0.41-1.536 0.82-1.536c0.511 0 2.252-1.229 3.993-2.867 1.74-1.536 6.246-5.632 10.137-9.114 3.892-3.481 8.704-7.885 10.752-9.728s7.066-6.349 11.06-10.035c4.096-3.686 8.908-8.09 10.752-9.728 1.843-1.74 6.86-6.246 11.161-10.138 8.09-7.168 9.216-8.192 19.251-17.408 5.223-4.812 18.33-16.69 23.86-21.606 1.33-1.126 6.348-5.734 11.366-10.24 4.915-4.506 9.83-8.909 10.752-9.728 0.922-0.82 5.734-5.12 10.547-9.626 4.915-4.403 9.728-8.806 10.752-9.728 1.946-1.638 16.077-14.438 21.709-19.558 1.536-1.434 6.554-6.042 11.264-10.24s9.728-8.806 11.264-10.24c1.434-1.434 6.349-5.734 10.65-9.728 4.403-3.891 9.318-8.294 10.854-9.728 2.662-2.458 15.974-14.54 21.606-19.66 5.735-5.018 18.74-16.794 21.402-19.252 1.536-1.434 5.837-5.325 9.626-8.704s8.192-7.27 9.728-8.704c9.932-9.114 21.196-19.354 23.654-21.504 1.536-1.434 4.71-4.3 7.066-6.451l4.198-3.891v-70.554c0-38.912-0.307-70.656-0.717-70.656-0.512 0-4.198 3.277-8.397 7.168-4.096 3.994-7.68 7.168-7.884 7.168-0.205 0-2.15 1.74-4.301 3.789-4.096 3.891-16.487 15.155-24.679 22.425-2.457 2.253-5.939 5.325-7.782 7.066-1.74 1.638-6.963 6.349-11.366 10.342-4.506 4.096-9.626 8.704-11.264 10.24-1.741 1.639-6.247 5.735-10.138 9.114-3.789 3.38-8.09 7.27-9.626 8.704-1.536 1.434-7.065 6.451-12.39 11.264-5.222 4.813-10.752 9.83-12.186 11.162-1.433 1.228-6.348 5.632-10.854 9.728-4.506 3.993-9.626 8.601-11.469 10.342-1.74 1.638-6.349 5.837-10.137 9.216s-8.397 7.475-10.138 9.216c-1.843 1.638-6.656 6.042-10.752 9.728a745.788 745.788 0 0 0-9.728 8.704c-1.126 1.126-6.451 5.94-11.776 10.752s-10.854 9.83-12.39 11.264c-1.536 1.434-6.144 5.53-10.24 9.216-4.096 3.686-9.012 8.192-11.06 10.035-1.945 1.843-5.222 4.813-7.27 6.656-2.048 1.843-7.782 6.861-12.595 11.367-4.915 4.403-9.933 8.908-11.162 10.035-3.789 3.277-19.456 17.51-22.528 20.48-1.638 1.638-3.379 2.867-3.891 2.867-0.614 0-1.024 0.717-1.024 1.536s-0.41 1.536-0.82 1.536c-0.511 0-2.764 1.74-5.017 3.789-2.355 2.15-7.27 6.656-11.161 10.035-3.79 3.38-8.09 7.27-9.626 8.704-1.536 1.434-6.144 5.53-10.138 9.216-4.096 3.686-9.42 8.5-11.878 10.752-2.355 2.253-7.782 7.066-11.878 10.752a1447.388 1447.388 0 0 0-21.914 19.968c-12.8 11.878-21.402 18.125-32.666 23.347-20.992 10.035-46.49 12.083-67.686 5.632-3.891-1.229-7.373-2.253-7.68-2.355-0.307 0-3.174-1.331-6.554-2.867-3.276-1.536-6.348-2.765-6.86-2.765s-0.922-0.512-0.922-1.024c0-0.614-0.512-1.024-1.126-1.024-2.356 0-18.535-13.107-32.256-26.112-0.615-0.512-4.506-3.994-8.602-7.68s-9.011-8.09-10.854-9.728c-1.844-1.74-6.144-5.632-9.626-8.704-3.482-3.072-7.782-6.963-9.523-8.5-1.741-1.638-6.349-5.734-10.24-9.215-3.891-3.482-8.909-7.987-10.957-9.933-2.15-1.946-6.349-5.734-9.42-8.397-2.97-2.56-7.374-6.451-9.729-8.704-2.253-2.15-7.577-6.86-11.673-10.547-4.199-3.686-9.012-8.192-10.957-10.035-1.843-1.741-3.584-3.277-3.789-3.277-0.205 0-1.74-1.229-3.38-2.867-3.89-3.584-14.233-13.107-19.25-17.51-2.253-1.844-5.837-5.12-8.09-7.169s-8.704-7.884-14.336-12.902c-5.632-5.12-10.752-9.626-11.366-10.24-0.615-0.512-4.916-4.506-9.626-8.704-4.71-4.198-10.035-9.114-11.878-10.752-1.844-1.74-6.452-5.837-10.24-9.216s-7.373-6.656-7.988-7.168c-0.614-0.614-5.53-4.915-10.854-9.728-5.325-4.71-10.957-9.83-12.493-11.264-1.433-1.434-5.325-4.915-8.499-7.68-3.277-2.867-7.168-6.246-8.602-7.68-1.536-1.434-5.939-5.325-9.728-8.704-3.89-3.38-8.806-7.782-10.854-9.728-3.686-3.482-16.794-15.258-20.48-18.432-6.042-5.222-19.456-17.51-22.835-20.787-2.15-2.048-4.199-3.789-4.506-3.789-0.307 0-1.536-1.024-2.765-2.355-2.048-2.048-14.745-13.62-22.63-20.685-5.837-5.12-15.053-13.312-16.691-14.95a285.8 285.8 0 0 1-7.066-6.554l-5.427-4.915v71.885z" fill="#E94600" p-id="7009"></path><path d="M66.56 584.294c0.102 58.266 0.41 65.639 3.072 72.602 4.198 10.957 10.65 20.89 16.794 26.112 1.638 1.434 4.915 4.403 7.372 6.656 2.356 2.253 6.656 6.144 9.626 8.704 2.867 2.56 6.554 5.734 8.09 7.168 6.86 6.349 28.774 26.112 35.942 32.358 2.56 2.15 5.325 4.71 6.144 5.632 0.82 0.82 6.656 6.144 12.8 11.674 14.848 13.312 28.16 25.19 30.208 27.136 0.82 0.82 5.018 4.506 9.114 8.192 4.198 3.686 8.806 7.782 10.342 9.216a536.013 536.013 0 0 0 11.366 10.24c4.71 4.198 10.138 9.216 12.186 11.06 1.946 1.945 5.734 5.324 8.397 7.577 2.662 2.253 6.758 5.939 9.216 8.192a568.72 568.72 0 0 0 11.059 9.83c3.584 3.277 7.987 7.168 9.728 8.909 1.74 1.638 6.042 5.632 9.626 8.704s7.68 6.758 9.216 8.192c1.536 1.434 6.553 6.042 11.264 10.24s9.83 8.806 11.366 10.24c1.536 1.434 6.042 5.427 10.035 9.011 3.994 3.584 8.397 7.475 9.728 8.704 1.331 1.229 6.042 5.427 10.445 9.421a665.814 665.814 0 0 1 10.752 9.728c1.536 1.434 6.144 5.53 10.24 9.216 4.096 3.686 8.704 7.782 10.24 9.216 1.536 1.434 6.042 5.427 10.035 9.011 3.994 3.584 8.295 7.475 9.728 8.704a717.846 717.846 0 0 0 11.571 10.445c5.018 4.506 11.06 10.035 13.517 12.39 2.355 2.356 4.301 3.994 4.301 3.584 0-0.307 0.41-0.102 0.82 0.41 2.15 3.072 14.642 11.776 23.756 16.589 5.632 2.97 16.691 7.782 18.432 7.987 0.307 0 1.126 0.41 1.843 0.82 0.615 0.511 1.229 0.614 1.229 0.204 0-0.307 0.922-0.102 1.946 0.512 1.126 0.512 3.788 1.331 5.939 1.638 2.15 0.308 4.198 0.82 4.505 0.922 4.608 2.867 39.22 2.56 51.405-0.41 2.048-0.512 3.789-0.716 3.789-0.41 0 0.308 0.614 0.103 1.331-0.511 0.717-0.615 2.663-1.331 4.403-1.639 12.596-2.252 38.81-17.612 52.122-30.617 1.229-1.229 5.632-5.325 9.83-9.114a614.414 614.414 0 0 0 10.24-9.216c5.018-4.505 21.812-19.763 24.064-21.811a6193.94 6193.94 0 0 0 20.89-18.944 665.814 665.814 0 0 1 10.752-9.728c4.403-3.994 9.216-8.294 10.752-9.728 5.018-4.608 19.046-17.306 21.504-19.456 5.018-4.403 19.968-18.022 23.245-21.197 1.843-1.843 3.379-3.174 3.379-2.867 0 0.205 1.74-1.331 3.891-3.38 2.15-2.047 7.987-7.474 13.005-11.98a1750.865 1750.865 0 0 0 13.722-12.493c2.56-2.355 5.734-5.12 6.86-6.144 1.23-1.024 6.452-5.734 11.674-10.547 5.222-4.813 11.06-10.035 13.005-11.674 1.843-1.638 5.734-5.222 8.601-7.884 2.765-2.765 5.325-5.018 5.632-5.018 0.205 0 2.048-1.536 3.892-3.277 3.379-3.379 18.944-17.715 23.347-21.504 4.198-3.584 22.528-20.275 32.563-29.491 2.048-1.946 7.168-6.554 11.366-10.24 4.096-3.686 9.012-8.192 10.855-10.035 1.945-1.741 3.584-3.277 3.891-3.277 0.205 0 2.15-1.74 4.3-3.891 2.254-2.048 7.68-7.066 12.084-10.957 26.829-23.962 30.106-27.443 35.533-38.093 6.758-13.312 6.963-15.565 6.963-82.227 0-50.278-0.205-59.392-1.434-58.675-1.433 0.819-6.45 5.325-30.72 27.443-11.059 10.035-11.776 10.65-21.094 18.944-4.096 3.686-9.728 8.806-12.493 11.469-2.867 2.765-5.325 4.915-5.53 4.915-0.204 0-1.945 1.536-3.788 3.277a670.5 670.5 0 0 1-10.855 10.035 1926.07 1926.07 0 0 0-12.083 10.957c-2.457 2.457-4.813 4.403-5.017 4.403-0.308 0-1.741 1.229-3.277 2.765-2.458 2.56-19.047 17.715-23.757 21.811-2.56 2.253-18.125 16.384-22.323 20.275-2.048 1.843-5.427 4.915-7.68 6.861-5.427 4.71-21.914 19.866-25.498 23.245-1.638 1.638-3.174 2.867-3.481 2.867-0.308 0-2.048 1.536-3.79 3.38-1.842 1.842-7.68 7.167-13.004 11.98-5.325 4.813-10.24 9.114-10.854 9.728-0.615 0.512-4.916 4.506-9.626 8.704-4.71 4.198-10.24 9.42-12.493 11.469-2.15 2.15-4.096 3.891-4.3 3.891-0.41 0-12.289 10.854-17.101 15.565-1.639 1.638-3.072 2.867-3.38 2.867-0.204 0-1.945 1.536-3.89 3.38-3.175 3.071-17.511 16.178-27.342 24.882-2.457 2.15-6.656 6.042-9.42 8.602-2.663 2.56-7.373 6.758-10.343 9.42-2.97 2.56-7.065 6.247-9.113 8.193-2.048 1.843-7.373 6.553-11.776 10.547-4.404 3.891-9.216 8.294-10.65 9.728-1.536 1.434-6.554 6.042-11.264 10.24s-11.06 9.933-14.131 12.8c-12.595 11.366-14.336 12.8-15.565 12.8-0.512 0-1.331 0.614-1.74 1.331-1.537 2.355-16.18 9.728-24.884 12.493-3.072 1.024-6.349 2.048-7.168 2.355-0.82 0.205-2.458 0.615-3.584 0.717-1.126 0.102-3.686 0.512-5.632 0.922-10.24 2.15-31.642 0.41-41.984-3.277-0.82-0.307-2.355-0.717-3.277-0.82-7.475-1.535-26.931-13.311-35.84-21.708-2.662-2.458-6.246-5.735-8.09-7.27-1.843-1.434-5.017-4.301-7.167-6.35-2.15-2.047-6.964-6.45-10.752-9.727-3.892-3.277-8.704-7.68-10.752-9.626-2.048-1.946-6.452-5.94-9.728-8.806-3.38-2.97-7.373-6.554-9.114-8.09-1.638-1.536-5.222-4.71-7.782-7.066-2.56-2.252-8.5-7.68-13.21-11.878-4.608-4.198-9.011-8.192-9.626-8.704-0.614-0.614-3.686-3.38-6.86-6.144-3.072-2.867-8.704-7.885-12.596-11.264-3.788-3.38-9.113-8.192-11.776-10.752-2.764-2.56-7.884-7.168-11.468-10.24-3.584-3.072-7.578-6.758-9.114-8.09-1.434-1.33-5.94-5.427-10.138-9.216-4.198-3.686-9.113-8.192-10.956-9.83-1.844-1.74-6.452-5.837-10.24-9.216-6.144-5.427-9.728-8.704-20.89-18.944-1.536-1.434-5.222-4.608-8.192-7.168-2.867-2.56-7.578-6.656-10.24-9.216-4.3-3.994-7.885-7.168-19.968-17.92-5.53-4.813-16.282-14.643-19.866-17.92-2.048-1.946-7.168-6.554-11.366-10.24-4.096-3.686-8.704-7.782-10.24-9.216-1.536-1.434-6.144-5.53-10.24-9.216-4.198-3.686-9.114-8.192-11.06-10.035-1.842-1.741-3.583-3.277-3.788-3.277-0.205 0-1.946-1.536-3.891-3.38-3.482-3.276-10.343-9.522-21.504-19.455-3.277-2.97-7.68-6.963-9.83-8.909-2.151-1.946-6.759-6.144-10.24-9.216-3.585-3.072-7.885-7.066-9.729-8.704-1.843-1.74-6.656-6.042-10.752-9.728-4.198-3.686-8.09-7.168-8.704-7.68-0.614-0.614-3.072-2.867-5.53-5.018l-4.3-3.993v61.337z" fill="#E94600" p-id="7010"></path></svg>