<svg t="1721805502401" class="icon" viewBox="0 0 1024 1024" version="1.1" xmlns="http://www.w3.org/2000/svg" p-id="19721" width="200" height="200"><path d="M256.7 120h510.6c12.2 0 24.1 4.1 33.6 11.8 11 9 17.9 22.3 18.1 37.1V500h15c27.6 0 50 22.4 50 50v303c0 27.6-22.4 50-50 50H190c-27.6 0-50-22.4-50-50V550c0-27.6 22.4-50 50-50h15V169.5c0-15.1 7-28.7 18.1-37.7 9.3-7.6 20.9-11.7 32.9-11.8h511.3-510.6zM306 580h-86v243h584V580h-85c-19.2 92.7-104.7 162-206.5 162-100.7 0-185.5-67.9-205.9-159.2l-0.6-2.8z m433-380H285v300h97.1l-0.1 40.5c0 66.6 58 121.5 130.5 121.5 71.8 0 129.3-53.7 130.5-119.4v-2l-0.3-40.6H739V200z m-357 96.5h261c19.3 0 35 15.7 35 35 0 19.1-15.4 34.7-34.4 35H382c-19.3 0-35-15.7-35-35 0-19.1 15.4-34.7 34.4-35H643 382z" fill="#e6e6e6" p-id="19722"></path></svg>
