<svg t="1721805897860" class="icon" viewBox="0 0 1088 1024" version="1.1" xmlns="http://www.w3.org/2000/svg" p-id="30158" width="200" height="200"><path d="M895.587878 593.640942c-103.89929 0-192.920681 84.144425-192.920681 192.920681 0 103.89929 84.144425 188.044715 188.043714 192.920681h5.001966c103.89929 0 192.920681-84.144425 192.920681-192.920681-0.124999-103.89929-84.145425-192.920681-193.04568-192.920681m0 316.699835c-69.266526 0-123.655155-54.387628-123.655155-123.654155s54.388628-123.654155 123.655155-123.654154 123.654155 54.387628 123.654155 123.654154c0 69.141527-54.387628 123.654155-123.654155 123.654155M192.920681 593.640942C89.021391 593.640942 0 677.785367 0 786.561623c0 103.89929 84.145425 188.044715 188.044715 192.920681h5.000965c103.89929 0 192.920681-84.144425 192.920682-192.920681-5.000966-103.89929-89.146391-192.920681-193.045681-192.920681m0 316.699835c-69.266526 0-123.654155-54.387628-123.654155-123.654155s54.387628-123.654155 123.654155-123.654154 123.654155 54.387628 123.654155 123.654154c-4.875967 69.141527-59.263595 123.654155-123.654155 123.654155m366.212497-524.499415c108.900256 0 197.921647-84.144425 197.921647-192.920681C757.054825 89.021391 672.9094 0 564.134144 0 455.232888 5.000966 371.213462 89.021391 371.213462 197.921647c-0.124999 103.775291 84.019426 187.919715 187.918716 187.919715m0-311.697869c69.266526 0 123.655155 54.386628 123.655155 123.653155s-54.388628 123.654155-123.654155 123.654155S435.477023 267.063174 435.477023 197.796648c4.876967-69.266526 59.264595-123.654155 123.655155-123.654155M197.921647 549.130246c14.878898-99.023323 74.267492-183.043749 148.410985-237.556376-5.001966-14.878898-14.879898-34.632763-19.754864-54.387628-103.89929 64.264561-173.166816 173.165816-188.044715 296.819971 19.754865-5.000966 34.632763-5.000966 54.387628-5.000966h5.000966m707.543163 0.124999c19.754865 0 39.634729 5.000966 59.389594 9.876933-14.879898-123.654155-79.144459-227.553444-178.167782-291.944005-5.000966 19.754865-14.878898 39.634729-24.755831 54.387629 74.267492 54.513627 123.779154 133.657086 143.534019 227.679443M707.543163 930.095642c-49.511662 24.755831-99.023323 34.633763-158.287918 34.633763-59.389594 0-113.777222-14.879898-163.288883-39.634729-9.876932 14.877898-24.755831 29.631797-39.63373 44.509696 59.389594 34.633763 133.656086 54.388628 207.79858 54.388628 74.267492 0 138.533053-19.754865 197.922647-49.511661-19.754865-14.753899-29.632797-29.506798-44.510696-44.385697" fill="#e6e6e6" p-id="30159"></path></svg>
