<svg t="1721806387702" class="icon" viewBox="0 0 1389 1024" version="1.1" xmlns="http://www.w3.org/2000/svg" p-id="47002" width="200" height="200"><path d="M919.320911 721.225673c-30.21118 0-60.289855 9.010352-84.405797 24.115942L663.055901 579.445135c27.163561-36.173913 45.184265-81.358178 45.184265-129.590063 0-45.184265-15.10559-87.453416-39.221532-120.57971L768.530021 223.668737c18.153209 9.010352 39.221532 18.153209 60.289855 18.153209 66.385093 0 120.57971-54.327122 120.57971-120.57971 0-66.385093-54.327122-120.57971-120.57971-120.57971-66.385093 0-120.57971 54.327122-120.57971 120.57971 0 24.115942 6.095238 42.269151 18.153209 60.289855l-99.511387 105.47412c-33.126294-30.21118-78.443064-48.231884-129.722568-48.231884s-99.511387 18.153209-138.732919 51.279503l-87.453416-81.358178c9.010352-18.153209 15.10559-39.221532 15.10559-60.289855 0-66.385093-54.327122-120.57971-120.57971-120.57971-66.385093 0-120.57971 54.327122-120.57971 120.57971 0 66.385093 54.327122 120.57971 120.57971 120.57971 24.115942 0 45.184265-6.095238 63.337474-18.153209l93.416149 84.405797c-24.115942 33.126294-36.173913 72.347826-36.173913 114.616977 0 54.327122 21.068323 102.559006 54.327122 138.73292l-63.337474 66.385093c-24.115942-15.10559-51.279503-24.115942-81.358178-24.115942-84.405797 0-150.79089 66.385093-150.79089 150.79089C44.919255 866.05383 111.304348 932.438923 195.710145 932.438923s150.79089-66.385093 150.79089-150.79089c0-30.21118-9.010352-60.289855-27.163561-84.405797l63.337474-69.300207c33.126294 21.068323 72.347826 33.126294 111.569358 33.126294 45.184265 0 87.453416-15.10559 120.579711-39.221532l174.906832 165.89648c-12.057971 24.115942-21.068323 54.327122-21.068323 84.405797 0 84.405797 66.385093 150.79089 150.79089 150.790891 84.405797 0 150.79089-66.385093 150.79089-150.790891-0.132505-84.670807-66.517598-150.923395-150.923395-150.923395zM828.819876 57.772257c33.126294 0 60.289855 27.163561 60.289855 60.289855S862.078675 178.484472 828.819876 178.484472c-33.126294 0-60.289855-27.163561-60.289855-60.289855s27.163561-60.42236 60.289855-60.42236zM105.20911 148.273292c0-33.126294 27.163561-60.289855 60.289855-60.289855s60.289855 27.163561 60.289855 60.289855-27.163561 60.289855-60.289855 60.289855-60.289855-27.163561-60.289855-60.289855z m90.501035 723.610766c-51.279503 0-90.501035-39.221532-90.501035-90.501035 0-51.279503 39.221532-90.501035 90.501035-90.501035 15.10559 0 27.163561 3.047619 39.221532 9.010352l42.269151 39.221532c6.095238 12.057971 9.010352 27.163561 9.010352 42.269151-0.132505 51.412008-39.354037 90.501035-90.501035 90.501035z m301.449275-271.3706c-84.405797 0-150.79089-66.385093-150.79089-150.790891S412.753623 299.064182 497.15942 299.064182c84.405797 0 150.79089 66.385093 150.790891 150.79089s-66.385093 150.658385-150.790891 150.658386z m422.161491 361.871635c-51.279503 0-90.501035-39.221532-90.501035-90.501035 0-51.279503 39.221532-90.501035 90.501035-90.501035 51.279503 0 90.501035 39.221532 90.501035 90.501035 0 51.279503-39.221532 90.501035-90.501035 90.501035z m0 0" p-id="47003" fill="#e6e6e6"></path></svg>
