<svg t="1721806051854" class="icon" viewBox="0 0 1024 1024" version="1.1" xmlns="http://www.w3.org/2000/svg" p-id="33594" width="200" height="200"><path d="M397.44 180.8c10.304-9.6 25.088-12.096 37.76-6.912l6.144 3.2 329.216 217.408 160.704-43.904a35.52 35.52 0 0 1 41.408 18.88l2.24 6.016a35.52 35.52 0 0 1-18.88 41.408l-6.016 2.24-176.192 48.192a35.52 35.52 0 0 1-23.68-1.728l-5.312-2.88-319.36-210.88-169.92 158.976a35.52 35.52 0 0 1-45.44 2.56l-4.8-4.224a35.52 35.52 0 0 1-2.56-45.44l4.288-4.8L397.44 180.8z" fill="#e6e6e6" p-id="33595"></path><path d="M568.768 315.328a35.52 35.52 0 0 1 58.624 39.68l-3.584 5.248L490.88 522.944l193.536 104.96c19.776 10.752 24.32 36.416 11.008 53.248l-4.544 4.736-221.312 193.536a35.52 35.52 0 0 1-51.2-48.896l4.48-4.608 182.72-159.936-186.24-101.12a35.584 35.584 0 0 1-14.272-48.256l3.648-5.44 160.128-195.84zM323.392 621.632a35.52 35.52 0 0 1 61.696 34.752l-3.2 5.568-65.92 95.872-6.08 6.784-170.88 147.84a35.52 35.52 0 0 1-51.008-49.216l4.48-4.608 167.552-144.896 63.36-92.096z" fill="#e6e6e6" p-id="33596"></path><path d="M704.064 255.36a88.832 88.832 0 1 0 0-177.728 88.832 88.832 0 0 0 0 177.728z" fill="#e6e6e6" p-id="33597"></path></svg>
