<svg t="1721805652085" class="icon" viewBox="0 0 1024 1024" version="1.1" xmlns="http://www.w3.org/2000/svg" p-id="23534" width="200" height="200"><path d="M953.685333 61.610667a28.444444 28.444444 0 0 0-31.288889 0L69.575111 630.442667a28.273778 28.273778 0 0 0-12.515555 26.510222 28.216889 28.216889 0 0 0 17.635555 23.438222l222.264889 89.031111 104.561778 183.182222a28.672 28.672 0 0 0 49.493333 0.568889l59.164445-98.360889 275.569777 110.364445a25.543111 25.543111 0 0 0 10.467556 1.934222 28.444444 28.444444 0 0 0 28.444444-23.893333l142.108445-853.333334a28.387556 28.387556 0 0 0-13.084445-28.273777zM426.666667 880.071111l-79.872-138.581333 538.168889-577.024L426.666667 880.071111z" p-id="23535" fill="#e6e6e6"></path></svg>
