<svg t="1721806112371" class="icon" viewBox="0 0 1024 1024" version="1.1" xmlns="http://www.w3.org/2000/svg" p-id="37540" width="200" height="200"><path d="M554.266 76.505H405.392v42.57h148.874v-42.57z m116.886 382.647c-136.103 0-244.475 108.494-244.475 244.476s108.372 244.597 244.475 244.597S915.628 839.73 915.628 703.749s-108.25-244.597-244.476-244.597z m138.293 276.464h-170.16V565.578h42.57v127.59h127.712v42.448z m-423.15 0H277.803v-42.57h106.304c2.19-46.828 14.84-89.276 36.246-127.59H277.924v-42.57h170.038c53.152-65.923 134.036-106.304 223.312-106.304 67.991 0 131.847 23.352 180.742 63.855V182.81c0-59.598-46.828-106.304-106.305-106.304h-99.98l-27.61 85.02H341.659l-36.246-84.898h-91.465c-59.599 0-106.305 46.827-106.305 106.304v659.233c0 59.598 46.828 106.304 106.305 106.304h308.33c-74.437-44.76-125.4-123.454-135.981-212.852zM277.803 352.97h404.054v42.57H277.802v-42.57z m0 0" p-id="37541" fill="#e6e6e6"></path></svg>
