<svg id="图层_1" data-name="图层 1" xmlns="http://www.w3.org/2000/svg" xmlns:xlink="http://www.w3.org/1999/xlink" viewBox="0 0 500 101.34"><defs><style>.cls-1{fill:url(#未命名的渐变_8);}.cls-2{font-size:103.05px;fill:#5594e0;font-family:FIFAWelcome, FIFA Welcome;}</style><linearGradient id="未命名的渐变_8" x1="22.06" y1="89.77" x2="101.84" y2="10" gradientUnits="userSpaceOnUse"><stop offset="0" stop-color="#72cecf"/><stop offset="0.59" stop-color="#5394f4"/><stop offset="1" stop-color="#8d6cd7"/></linearGradient></defs><path class="cls-1" d="M102.86,83.31c-.78.49-1.38.92-2.06,1.3a30.41,30.41,0,0,1-3.38,1.68,60.09,60.09,0,0,1-8.16,2.83A50.44,50.44,0,0,1,81,90.58a44.06,44.06,0,0,1-8.36-.07,44.56,44.56,0,0,1-8.47-1.75c-1.34-.42-2.66-.9-4-1.43C56.87,86,54,86.17,50.69,86.77c-11.31,2.08-22.35,1.53-32.47-4.62C8.8,76.43,3.55,67.58.28,57.36-.5,54.94.32,53.78,3,53.58c7.24-.54,14.48-1.22,22.38-1.91-4.27-12-5.79-24.54-1.76-37.8,9.6,2.54,15.68,9.25,21.79,15.12,5.15-4.36,9.68-9.24,15.13-12.62,14.44-9,30-10.07,45.15-2.42,12.26,6.19,18.78,18,17.09,31.87-.88,7.27-5.33,12.93-10.7,17.63-9.53,8.33-24.18,11.46-33.2,9.18-8.76-2.21-16.81-11-17.5-20-.55-7.2,1.31-13.62,6.35-19.12,5.62-6.13,13-7.44,20.3-6.16,9.7,1.7,17.46,10.13,17,23.7a.47.47,0,0,1-.46.45H92.37c-6.22,0-12.43.06-18.64,0-2.64,0-3.33,1-3,3.54,1,8.21,8.11,12.05,15.08,12.27,12.38.4,22.44-6.75,27.26-13.41,8.57-11.85.83-28-9.41-33.68C95.9,15.8,88.44,13.55,80,14.57c-12.28,1.48-22.09,7.15-28.33,18.22-1.35,2.4-.67,4.35.57,6.43a54.87,54.87,0,0,1,8.2,26.86,39.65,39.65,0,0,1-.84,10.09c-.74,3.12.16,4.66,2.89,5.94,8.88,4.18,17.7,4.35,27.13,3.18a70.51,70.51,0,0,0,15-3.79A14.45,14.45,0,0,1,102.86,83.31ZM71.29,46.69c0,.33.89.32,1.23.32,6.56,0,13.12.06,19.68,0,3.68,0,4.36-.94,3.5-4.64C94,35.18,88.12,30.83,81.37,31.86,75,32.82,70.63,39.18,71.29,46.69Z" transform="translate(0 0.67)"/><text class="cls-2" transform="translate(133.84 80.31)">ECMDB</text></svg>
