<?xml version="1.0" standalone="no"?><!DOCTYPE svg PUBLIC "-//W3C//DTD SVG 1.1//EN" "http://www.w3.org/Graphics/SVG/1.1/DTD/svg11.dtd"><svg t="1758903454054" class="icon" viewBox="0 0 1024 1024" version="1.1" xmlns="http://www.w3.org/2000/svg" p-id="14082" xmlns:xlink="http://www.w3.org/1999/xlink" width="200" height="200"><path d="M512 985.6c-86.1696 0-169.5232-53.76-202.7008-130.56l-15.36-35.84h436.224l-15.36 35.84c-33.28 76.8-116.6336 130.56-202.8032 130.56zM378.112 870.4a172.032 172.032 0 0 0 267.776 0zM75.9808 768v-76.8c0-66.9696 46.08-124.7744 105.6768-137.9328V460.8C181.9136 301.6192 261.12 175.0528 389.632 126.976a128.3072 128.3072 0 0 1 242.5344-4.096 284.672 284.672 0 0 1 153.2416 120.4224c37.2224 59.136 57.0368 134.2976 57.1904 217.344v92.672c59.3408 13.1584 105.5232 70.912 105.5232 137.728v76.8z m131.2256-166.2976c-42.6496 0-80.0768 41.8304-80.0768 89.4976v25.6h769.7408v-25.6c0-47.616-37.3248-89.344-79.9232-89.344h-25.6V460.8c-0.3072-150.8864-70.0928-260.4032-186.6752-292.8128l-14.592-4.096-3.4304-14.7456a77.1072 77.1072 0 0 0-150.6304 2.6112l-2.8672 14.6432-14.336 4.608C304.384 208.0768 233.1136 319.1808 232.8064 460.8v140.7488zM948.0192 691.2z" fill="#e6e6e6" p-id="14083"></path></svg>