<?xml version="1.0" standalone="no"?><!DOCTYPE svg PUBLIC "-//W3C//DTD SVG 1.1//EN" "http://www.w3.org/Graphics/SVG/1.1/DTD/svg11.dtd"><svg t="1758903173121" class="icon" viewBox="0 0 1024 1024" version="1.1" xmlns="http://www.w3.org/2000/svg" p-id="9797" xmlns:xlink="http://www.w3.org/1999/xlink" width="200" height="200"><path d="M418.753264 72.56333h188.550385v45.709184h-188.550385z" p-id="9798" fill="#dbdbdb"></path><path d="M976.633858 438.693896V96.903471c0-13.369936-10.855931-24.340141-24.340141-24.340141H796.311126v45.709184h134.613548v151.2974H94.218056V118.272514h136.099096v-45.709184H72.849012c-13.369936 0-24.340141 10.855931-24.34014 24.340141v901.156567c0 13.369936 10.970204 24.340141 24.34014 24.340141h879.444705c13.369936 0 24.340141-10.855931 24.340141-24.340141V513.314139h-45.709184v463.376855H94.218056V315.279098h836.706618v123.529071h45.709184z" p-id="9799" fill="#dbdbdb"></path><path d="M324.478072 174.951903c12.570026 0 22.854592-10.284566 22.854592-22.854592V22.854592c0-12.570026-10.284566-22.854592-22.854592-22.854592s-22.854592 10.284566-22.854592 22.854592V152.097311c0 12.570026 10.284566 22.854592 22.854592 22.854592zM701.578842 174.951903c12.570026 0 22.854592-10.284566 22.854592-22.854592V22.854592c0-12.570026-10.284566-22.854592-22.854592-22.854592s-22.854592 10.284566-22.854592 22.854592V152.097311c0 12.570026 10.284566 22.854592 22.854592 22.854592zM534.854592 782.655507v-351.960718c0-12.570026-10.284566-22.854592-22.854592-22.854593s-22.854592 10.284566-22.854592 22.854593v351.960718c0 12.570026 10.284566 22.854592 22.854592 22.854592 12.684299 0 22.854592-10.284566 22.854592-22.854592z" p-id="9800" fill="#dbdbdb"></path><path d="M512.114273 857.961388m-22.854592 0a22.854592 22.854592 0 1 0 45.709184 0 22.854592 22.854592 0 1 0-45.709184 0Z" p-id="9801" fill="#dbdbdb"></path></svg>