<?xml version="1.0" standalone="no"?><!DOCTYPE svg PUBLIC "-//W3C//DTD SVG 1.1//EN" "http://www.w3.org/Graphics/SVG/1.1/DTD/svg11.dtd"><svg t="1761629646525" class="icon" viewBox="0 0 1024 1024" version="1.1" xmlns="http://www.w3.org/2000/svg" p-id="7948" xmlns:xlink="http://www.w3.org/1999/xlink" width="200" height="200"><path d="M513.7408 724.0192v177.7664H122.3168V510.8224h175.616V439.7056H86.9376A35.6352 35.6352 0 0 0 51.2 475.392v461.7216c0 19.8144 15.9744 35.6864 35.6864 35.6864h462.1824a35.6352 35.6352 0 0 0 35.6352-35.6864v-213.0944h-70.9632zM511.2832 300.032V122.2144h391.3216v390.9632h-175.6672v71.1168h211.0976a35.6352 35.6352 0 0 0 35.6352-35.6864V86.8864A35.6352 35.6352 0 0 0 938.0352 51.2H475.8528a35.6352 35.6352 0 0 0-35.6864 35.6864v213.0944h71.1168zM297.0624 510.72a35.5328 35.5328 0 1 0 0-71.1168c-45.8752 0-45.824 71.1168 0 71.1168z m143.104-212.992a35.5328 35.5328 0 1 0 71.1168 0c0-45.8752-71.1168-45.8752-71.1168 0z m287.744 215.4496a35.5328 35.5328 0 1 0 0 71.1168c45.8752 0 45.8752-71.168 0-71.168z m-143.4112 211.7632a35.5328 35.5328 0 1 0-71.1168 0c0 45.8752 71.1168 45.8752 71.1168 0z" fill="#e6e6e6" fill-opacity=".85" p-id="7949"></path><path d="M287.5392 784.128l496.0256-496.0768a35.584 35.584 0 0 0-50.2784-50.3296l-496.128 496.2304a35.584 35.584 0 1 0 50.3808 50.176z m-25.2416 11.008h142.2336a35.5328 35.5328 0 1 0 0-71.1168H262.2976a35.5328 35.5328 0 1 0 0 71.168z m-35.4304-177.8688v142.2336a35.5328 35.5328 0 1 0 71.1168 0v-142.2336a35.5328 35.5328 0 1 0-71.168 0z m532.0704-389.7344h-142.2336a35.5328 35.5328 0 1 0 0 71.1168h142.2336a35.5328 35.5328 0 1 0 0-71.168z m35.5328 177.8688V263.168a35.5328 35.5328 0 1 0-71.1168 0v142.2336a35.5328 35.5328 0 1 0 71.168 0z" fill="#e6e6e6" p-id="7950"></path></svg>