<?xml version="1.0" standalone="no"?><!DOCTYPE svg PUBLIC "-//W3C//DTD SVG 1.1//EN" "http://www.w3.org/Graphics/SVG/1.1/DTD/svg11.dtd"><svg t="1760519314911" class="icon" viewBox="0 0 1024 1024" version="1.1" xmlns="http://www.w3.org/2000/svg" p-id="8818" xmlns:xlink="http://www.w3.org/1999/xlink" width="200" height="200"><path d="M85.333333 226.986667c0 78.506667 63.146667 141.653333 141.653334 141.653333s141.653333-63.146667 141.653333-141.653333S307.2 85.333333 228.693333 85.333333 85.333333 148.48 85.333333 226.986667" fill="#dbdbdb" p-id="8819"></path><path d="M228.693333 395.946667c-92.16 0-167.253333-75.093333-167.253333-167.253334S136.533333 61.44 228.693333 61.44s167.253333 75.093333 167.253334 167.253333-75.093333 167.253333-167.253334 167.253334z m0-285.013334c-64.853333 0-116.053333 52.906667-116.053333 116.053334 0 64.853333 52.906667 116.053333 116.053333 116.053333 64.853333 0 116.053333-52.906667 116.053334-116.053333 0-63.146667-52.906667-116.053333-116.053334-116.053334zM938.666667 489.813333c-13.653333 0-25.6-11.946667-25.6-25.6v-141.653333c0-37.546667-30.72-69.973333-69.973334-69.973333h-221.866666l98.986666 98.986666c10.24 10.24 10.24 25.6 0 35.84s-25.6 10.24-35.84 0l-141.653333-141.653333c-5.12-5.12-6.826667-10.24-6.826667-17.066667v-5.12c0-5.12 3.413333-10.24 6.826667-13.653333l1.706667-1.706667 141.653333-141.653333c10.24-10.24 25.6-10.24 35.84 0s10.24 25.6 0 35.84l-98.986667 98.986667h221.866667c66.56 0 121.173333 54.613333 121.173333 121.173333v141.653333c-1.706667 15.36-13.653333 25.6-27.306666 25.6zM322.56 964.266667c-6.826667 0-13.653333-1.706667-18.773333-6.826667-10.24-10.24-10.24-25.6 0-35.84l98.986666-98.986667h-221.866666c-66.56 0-121.173333-54.613333-121.173334-121.173333v-141.653333c0-13.653333 11.946667-25.6 25.6-25.6s25.6 11.946667 25.6 25.6v141.653333c0 37.546667 30.72 69.973333 69.973334 69.973333h221.866666l-98.986666-98.986666c-10.24-10.24-10.24-25.6 0-35.84s25.6-10.24 35.84 0l141.653333 141.653333c5.12 5.12 6.826667 10.24 6.826667 17.066667v5.12c0 5.12-3.413333 10.24-6.826667 13.653333l-1.706667 1.706667-138.24 141.653333c-5.12 5.12-11.946667 6.826667-18.773333 6.826667z" fill="#dbdbdb" p-id="8820"></path><path d="M655.36 797.013333c0 78.506667 63.146667 141.653333 141.653333 141.653334s141.653333-63.146667 141.653334-141.653334-63.146667-141.653333-141.653334-141.653333-141.653333 63.146667-141.653333 141.653333" fill="#dbdbdb" p-id="8821"></path><path d="M797.013333 964.266667c-92.16 0-167.253333-75.093333-167.253333-167.253334s75.093333-167.253333 167.253333-167.253333 167.253333 75.093333 167.253334 167.253333-75.093333 167.253333-167.253334 167.253334z m0-285.013334c-64.853333 0-116.053333 52.906667-116.053333 116.053334 0 64.853333 52.906667 116.053333 116.053333 116.053333 64.853333 0 116.053333-52.906667 116.053334-116.053333 0-63.146667-51.2-116.053333-116.053334-116.053334z" fill="#dbdbdb" p-id="8822"></path></svg>