<?xml version="1.0" standalone="no"?><!DOCTYPE svg PUBLIC "-//W3C//DTD SVG 1.1//EN" "http://www.w3.org/Graphics/SVG/1.1/DTD/svg11.dtd"><svg t="1776310629899" class="icon" viewBox="0 0 1024 1024" version="1.1" xmlns="http://www.w3.org/2000/svg" p-id="5402" xmlns:xlink="http://www.w3.org/1999/xlink" width="200" height="200"><path d="M649.728 552.813714a45.714286 45.714286 0 0 0-4.096-64.512 371.785143 371.785143 0 0 0-143.579429-78.848C567.588571 372.443429 612.352 303.542857 612.352 223.817143c0-118.345143-97.645714-214.674286-217.746286-214.674286S176.859429 105.472 176.859429 223.817143c0 81.188571 46.445714 151.113143 114.029714 187.611428-147.236571 46.08-260.681143 187.245714-276.992 361.472a45.714286 45.714286 0 0 0 91.062857 8.630858c15.213714-162.669714 134.656-289.718857 277.869714-295.570286A286.939429 286.939429 0 0 1 585.142857 556.909714a45.860571 45.860571 0 0 0 64.585143-4.096zM394.605714 82.285714c79.725714 0 144.676571 63.488 144.676572 141.531429 0 78.043429-64.877714 141.604571-144.676572 141.604571S250.002286 301.860571 250.002286 223.817143s64.877714-141.531429 144.603428-141.531429zM858.404571 748.690286c0-35.547429-19.236571-67.803429-50.468571-84.187429-32.109714-17.042286-69.485714-13.604571-102.473143 8.996572a55.442286 55.442286 0 0 0-14.482286 14.701714c-22.235429 33.865143-25.161143 73.508571-7.68 106.057143 16.384 30.354286 47.762286 49.225143 81.846858 49.225143 51.419429 0 93.257143-42.422857 93.257142-94.793143z m-66.56 0c0 15.213714-11.995429 27.648-26.697142 27.648s-26.697143-12.434286-26.697143-27.648 11.995429-27.648 26.697143-27.648 26.697143 12.434286 26.697142 27.648z" fill="#bfbfbf" p-id="5403"></path><path d="M983.186286 785.188571l-21.357715-12.434285a187.830857 187.830857 0 0 0 0-48.054857l24.429715-14.336a49.371429 49.371429 0 0 0 17.700571-66.56l-28.086857-49.664a51.858286 51.858286 0 0 0-71.606857-19.309715l-12.580572 7.387429a14.336 14.336 0 0 1-15.725714-0.292572 195.657143 195.657143 0 0 0-24.649143-14.848 15.286857 15.286857 0 0 1-7.899428-13.750857 52.370286 52.370286 0 0 0-52.077715-52.516571h-52.370285a52.370286 52.370286 0 0 0-52.077715 52.516571 15.286857 15.286857 0 0 1-7.753142 13.750857c-8.704 4.315429-16.896 9.289143-24.868572 14.848a14.628571 14.628571 0 0 1-15.652571 0.365715l-12.507429-7.460572a51.712 51.712 0 0 0-71.68 19.309715l-26.331428 46.665142a52.809143 52.809143 0 0 0 19.017142 71.241143l21.357715 12.653715a194.56 194.56 0 0 0 0 47.908571l-21.430857 12.653714a52.955429 52.955429 0 0 0-18.944 71.387429l26.404571 46.592a51.785143 51.785143 0 0 0 71.606857 19.309714l12.434286-7.314286a13.970286 13.970286 0 0 1 15.798857 0.365715c7.899429 5.485714 16.091429 10.386286 24.868571 14.774857a15.213714 15.213714 0 0 1 7.68 13.677714c0 28.964571 23.332571 52.516571 52.077715 52.516572h52.370285a52.370286 52.370286 0 0 0 52.077715-52.516572c0-5.851429 3.072-11.337143 7.899428-13.677714 8.557714-4.388571 16.822857-9.289143 24.649143-14.848a14.628571 14.628571 0 0 1 15.725714-0.365714l12.653715 7.460571a51.931429 51.931429 0 0 0 71.533714-19.382857l26.331429-46.592a53.101714 53.101714 0 0 0-19.017143-71.460572z m-203.044572 144.164572l-26.697143 2.998857v-48.493714l-14.628571-3.072a129.755429 129.755429 0 0 1-57.490286-28.233143 52.004571 52.004571 0 0 0-59.611428-5.193143l-16.896 9.947429-14.189715-19.894858 19.968-11.702857a52.662857 52.662857 0 0 0 24.868572-54.345143 130.852571 130.852571 0 0 1 0-45.348571 52.516571 52.516571 0 0 0-24.868572-54.125714l-18.870857-8.045715 13.312-23.552 16.676572 9.874286a51.785143 51.785143 0 0 0 59.611428-5.339428c16.603429-14.043429 36.425143-23.844571 57.563429-28.16l14.555428-3.072-3.291428-45.568 26.697143-2.925715v48.493715l14.628571 3.072c20.918857 4.388571 40.886857 14.116571 57.490286 28.16 16.822857 14.189714 40.667429 16.457143 59.611428 5.266285l16.676572-9.801143 11.922286 21.138286-17.554286 10.386286a52.589714 52.589714 0 0 0-24.795429 54.272 130.925714 130.925714 0 0 1 0 45.275428 52.443429 52.443429 0 0 0 24.868572 54.198858l18.870857 8.045714-13.385143 23.552-16.603429-9.801143a51.492571 51.492571 0 0 0-59.538285 5.193143 131.364571 131.364571 0 0 1-57.636572 28.233143l-14.555428 3.072 3.291428 45.494857z" fill="#bfbfbf" p-id="5404"></path></svg>