<?xml version="1.0" standalone="no"?><!DOCTYPE svg PUBLIC "-//W3C//DTD SVG 1.1//EN" "http://www.w3.org/Graphics/SVG/1.1/DTD/svg11.dtd"><svg t="1778122261935" class="icon" viewBox="0 0 1024 1024" version="1.1" xmlns="http://www.w3.org/2000/svg" p-id="9057" xmlns:xlink="http://www.w3.org/1999/xlink" width="200" height="200"><path d="M564.3776 87.5008a128 128 0 0 0-104.7552 0L199.68 204.0832c-28.672 12.8512-51.1488 36.1984-57.088 67.072-7.1168 37.0176-14.592 98.2016-14.592 191.7952 0 294.8608 246.1696 436.224 344.32 480.8192a94.8736 94.8736 0 0 0 79.36-0.1024l5.9392-2.7136-57.6-99.84a64 64 0 0 1 0-64l84.1728-145.8176a64 64 0 0 1 55.3984-32h168.3968c22.8352 0 43.9808 12.2368 55.3984 32l1.536 2.6112a474.7776 474.7776 0 0 0 31.0784-171.8272c0-93.5936-7.4752-154.5728-14.592-191.3344-5.9392-30.6688-28.2624-53.76-56.7296-66.56l-260.3008-116.736z m102.912 290.9696L492.544 553.1648a32 32 0 0 1-45.2608 0l-90.624-90.624a32 32 0 0 1 45.2608-45.2608l67.9936 67.9936 152.064-152.064a32 32 0 0 1 45.2608 45.2608z" p-id="9058" fill="#bfbfbf"></path><path d="M619.9808 693.3504a64 64 0 0 1 55.3984-32h96.768c22.8864 0 44.032 12.1856 55.4496 32l48.384 83.7632a64 64 0 0 1 0 64l-48.384 83.8144a64 64 0 0 1-55.4496 32h-96.768a64 64 0 0 1-55.3984-32l-48.384-83.8144a64 64 0 0 1 0-64l48.384-83.7632z m105.3184 160a42.6496 42.6496 0 1 0 0-85.3504 42.6496 42.6496 0 0 0 0 85.3504z" p-id="9059" fill="#bfbfbf"></path></svg>