<?xml version="1.0" standalone="no"?><!DOCTYPE svg PUBLIC "-//W3C//DTD SVG 1.1//EN" "http://www.w3.org/Graphics/SVG/1.1/DTD/svg11.dtd"><svg t="1758903062368" class="icon" viewBox="0 0 1024 1024" version="1.1" xmlns="http://www.w3.org/2000/svg" p-id="5110" xmlns:xlink="http://www.w3.org/1999/xlink" width="200" height="200"><path d="M708.923077 472.615385a236.307692 236.307692 0 1 1 0 472.615384 236.307692 236.307692 0 0 1 0-472.615384zM633.304615 78.769231c38.281846 0 69.316923 31.035077 69.316923 69.316923l-0.039384 34.658461H771.938462c38.281846 0 69.316923 31.035077 69.316923 69.316923v212.873847a274.195692 274.195692 0 0 0-51.987693-23.04V252.061538a17.329231 17.329231 0 0 0-14.178461-17.053538l-3.150769-0.275692H286.72a17.329231 17.329231 0 0 0-17.053538 14.178461l-0.275693 3.150769v554.535385a17.329231 17.329231 0 0 0 14.178462 17.053539l3.150769 0.275692h169.078154c8.979692 18.589538 19.968 35.997538 32.689231 51.987692H286.72a69.316923 69.316923 0 0 1-69.316923-69.316923l-0.039385-34.697846-69.277538 0.039385A69.316923 69.316923 0 0 1 78.769231 702.621538V148.086154C78.769231 109.804308 109.804308 78.769231 148.086154 78.769231h485.218461z m86.646154 524.642461l-88.772923 52.066462h-43.677538a18.510769 18.510769 0 0 0-18.432 18.471384v93.814154c0 10.161231 8.270769 18.510769 18.432 18.51077h43.716923l89.442461 52.460307a18.235077 18.235077 0 0 0 8.192 1.851077 18.432 18.432 0 0 0 10.436923-3.150769 19.298462 19.298462 0 0 0 9.019077-16.344615v-200.310154a19.574154 19.574154 0 0 0-8.900923-16.541539 19.771077 19.771077 0 0 0-19.416615-0.827077z m9.176616 16.541539l0.393846 201.137231-0.118154 0.866461-86.252308-50.648615v-101.021539l85.976616-50.372923z m47.064615 145.998769a9.216 9.216 0 0 0 0.630154 11.303385l1.929846 1.654153 37.179077 24.812308c1.575385 1.024 3.387077 1.575385 5.198769 1.575385 3.150769 0 6.065231-1.575385 7.876923-4.214154a9.216 9.216 0 0 0-0.590769-11.342769l-1.929846-1.654154-37.336616-24.694154a9.176615 9.176615 0 0 0-12.957538 2.56z m-151.748923-91.569231v93.105231l-36.627692 0.275692-0.315077-93.380923h36.942769zM827.076923 708.529231h-42.850461a9.452308 9.452308 0 0 0-2.520616 18.550154l2.520616 0.354461H827.076923a9.452308 9.452308 0 0 0 0-18.904615zM633.304615 130.756923H148.086154a17.329231 17.329231 0 0 0-17.053539 14.178462l-0.275692 3.150769v554.535384a17.329231 17.329231 0 0 0 14.178462 17.053539l3.150769 0.275692 69.277538-0.039384L217.403077 252.061538c0-38.281846 31.035077-69.316923 69.316923-69.316923h363.913846v-34.658461a17.329231 17.329231 0 0 0-14.178461-17.053539l-3.15077-0.275692z m185.068308 500.302769l-2.284308 1.142154-37.218461 24.812308a9.452308 9.452308 0 0 0-2.520616 12.996923 8.704 8.704 0 0 0 7.719385 4.096 9.531077 9.531077 0 0 0 3.584-0.669539l1.654154-0.905846 37.179077-24.812307a9.452308 9.452308 0 0 0 2.56-12.996923 9.294769 9.294769 0 0 0-10.673231-3.66277zM524.996923 494.670769a277.267692 277.267692 0 0 0-47.064615 51.987693H356.036923v-51.987693h168.96z m177.624615-138.633846v51.987692h-346.584615V356.036923h346.584615z" p-id="5111" fill="#dbdbdb"></path></svg>