<?xml version="1.0" standalone="no"?><!DOCTYPE svg PUBLIC "-//W3C//DTD SVG 1.1//EN" "http://www.w3.org/Graphics/SVG/1.1/DTD/svg11.dtd"><svg t="1759052588232" class="icon" viewBox="0 0 1024 1024" version="1.1" xmlns="http://www.w3.org/2000/svg" p-id="8399" xmlns:xlink="http://www.w3.org/1999/xlink" width="200" height="200"><path d="M1021.086159 753.273444a52.854216 52.854216 0 0 0-25.014972-31.873917 23.804571 23.804571 0 0 1-12.104019-20.980299 24.208038 24.208038 0 0 1 12.104019-21.383767 51.240347 51.240347 0 0 0 18.559495-69.799842l-11.297084-20.173365a51.643814 51.643814 0 0 0-70.20331-18.559496l-8.472813 4.841608a17.349094 17.349094 0 0 1-17.752561 0 17.349094 17.349094 0 0 1-8.87628-15.331758A57.292356 57.292356 0 0 0 848.402156 501.913318h-26.225374a57.292356 57.292356 0 0 0-49.626478 58.09929 18.559496 18.559496 0 0 1-9.279748 16.138692 17.349094 17.349094 0 0 1-18.559495 0l-17.349094-8.87628a50.029945 50.029945 0 0 0-40.34673-4.841608 49.22301 49.22301 0 0 0-31.066982 23.401103L646.668507 605.200946a50.836879 50.836879 0 0 0 18.962963 69.799842 27.839243 27.839243 0 0 1 14.121356 24.611505 28.646178 28.646178 0 0 1-15.331757 25.014973 51.643814 51.643814 0 0 0-17.752562 70.606777l11.700552 20.173364a50.836879 50.836879 0 0 0 69.799842 18.559496l18.962963-10.893617a16.945626 16.945626 0 0 1 17.349094 0 16.945626 16.945626 0 0 1 8.472813 14.524823c0 24.611505 18.962963 58.502758 49.626478 58.502758H848.402156c30.663515 0 49.626478-33.891253 49.626478-58.502758a16.138692 16.138692 0 0 1 8.069346-13.717888 14.524823 14.524823 0 0 1 16.138691 0l12.104019 6.858944a52.047281 52.047281 0 0 0 40.34673 5.245075 51.240347 51.240347 0 0 0 31.066982-23.804571l11.700552-20.173365a51.643814 51.643814 0 0 0 3.631205-38.73286zM727.361967 700.419228a73.431048 73.431048 0 0 0-37.522459-64.554768 7.262411 7.262411 0 0 1 0-2.824271 5.245075 5.245075 0 0 1 0-3.631206l11.700552-20.173364h2.824271a4.034673 4.034673 0 0 1 3.631206 0l15.331757 8.87628a65.361702 65.361702 0 0 0 97.639086-56.485421 20.980299 20.980299 0 0 1 5.245075-11.700552H848.402156a20.980299 20.980299 0 0 1 5.245075 11.700552 64.554768 64.554768 0 0 0 96.428684 55.678487l8.472813-4.841608a4.034673 4.034673 0 0 1 3.631206 0 3.631206 3.631206 0 0 1 2.824271 0l11.700552 20.173365a6.052009 6.052009 0 0 1 0 3.631206s0 2.017336-2.420804 2.824271a69.396375 69.396375 0 0 0-35.505122 61.327029 70.20331 70.20331 0 0 0 36.715524 61.730496 5.245075 5.245075 0 0 1 2.420803 2.824271v3.631206l-11.297084 20.173365s0 2.017336-2.824271 2.017336a3.631206 3.631206 0 0 1-3.631206 0l-12.104019-6.858944a62.940898 62.940898 0 0 0-94.00788 54.064618 20.980299 20.980299 0 0 1-5.245075 12.104019h-24.611505a20.980299 20.980299 0 0 1-5.245075-12.104019 63.747833 63.747833 0 0 0-95.218282-54.871552l-18.962963 10.893617a4.034673 4.034673 0 0 1-3.631205 0s-2.017336 0-2.824271-2.017337l-11.700552-20.173365a4.43814 4.43814 0 0 1 0-3.227738 6.858944 6.858944 0 0 1 3.227738-3.631206 74.64145 74.64145 0 0 0 37.522459-64.554767z" fill="#e6e6e6" p-id="8400"></path><path d="M831.053062 776.674547a77.869188 77.869188 0 1 0-77.869188-77.869188 77.465721 77.465721 0 0 0 77.869188 77.869188z m-31.470449-77.869188a31.470449 31.470449 0 1 1 31.470449 31.470449 31.470449 31.470449 0 0 1-31.470449-31.470449zM485.281589 1024a103.691095 103.691095 0 0 0 103.287628-103.691095H381.590493A103.691095 103.691095 0 0 0 485.281589 1024zM519.172842 80.693459V40.34673A37.118991 37.118991 0 0 0 444.934859 37.118991V80.693459a370.382979 370.382979 0 0 0-338.105595 368.76911v322.773838H38.239823a37.522459 37.522459 0 0 0 0 75.044917h532.9803a30.663515 30.663515 0 0 0 28.646178-40.34673 260.639874 260.639874 0 0 1 242.080378-359.085894h14.121356v-6.455477A360.296296 360.296296 0 0 0 519.172842 80.693459z m-18.962963 626.98818a359.085894 359.085894 0 0 0 4.841607 58.906225H187.522723v-317.93223a290.496454 290.496454 0 0 1 290.092987-289.689519h18.962963A282.427108 282.427108 0 0 1 767.708697 371.996848a343.35067 343.35067 0 0 0-267.498818 334.474389zM620.8466 846.070922h0.403468v-0.403467l-0.403468 0.403467z" fill="#e6e6e6" p-id="8401"></path></svg>