<svg t="1760519422321" class="icon" viewBox="0 0 1024 1024" version="1.1" xmlns="http://www.w3.org/2000/svg" p-id="9886" xmlns:xlink="http://www.w3.org/1999/xlink" width="200" height="200"><path d="M853.333333 53.333333c41.216 0 74.666667 33.450667 74.666667 74.666667v768A74.666667 74.666667 0 0 1 853.333333 970.666667H170.666667A74.666667 74.666667 0 0 1 96 896V128c0-41.216 33.450667-74.666667 74.666667-74.666667z m0 64H170.666667a10.666667 10.666667 0 0 0-10.666667 10.666667v768c0 5.888 4.778667 10.666667 10.666667 10.666667h682.666666a10.666667 10.666667 0 0 0 10.666667-10.666667V128a10.666667 10.666667 0 0 0-10.666667-10.666667z m-355.541333 81.792c14.250667 0 26.069333 10.496 28.16 24.234667l0.256 4.181333v30.250667a190.08 190.08 0 0 1 163.968 188.288v131.072c0 28.202667 11.690667 55.210667 32.298667 74.496l3.84 4.010667a50.816 50.816 0 0 1-38.613334 83.882666l-94.506666 0.042667a99.584 99.584 0 0 1-190.848 0H312.576a50.816 50.816 0 0 1-34.773333-87.893333 102.186667 102.186667 0 0 0 32.256-74.538667v-131.072A190.122667 190.122667 0 0 1 469.333333 258.474667L469.333333 227.541333c0-15.701333 12.714667-28.416 28.458667-28.416z m31.744 540.458667h-63.530667a42.538667 42.538667 0 0 0 63.530667 0z m-29.44-426.666667a133.162667 133.162667 0 0 0-133.12 133.12v131.114667c0 37.674667-13.354667 73.898667-37.376 102.4L326.826667 682.666667h346.538666l-2.688-3.072a159.061333 159.061333 0 0 1-37.12-93.013334l-0.256-9.386666v-131.072a133.162667 133.162667 0 0 0-133.162666-133.205334z" fill="currentColor" p-id="9887"></path></svg>