<?xml version="1.0" standalone="no"?><!DOCTYPE svg PUBLIC "-//W3C//DTD SVG 1.1//EN" "http://www.w3.org/Graphics/SVG/1.1/DTD/svg11.dtd"><svg t="1759991975703" class="icon" viewBox="0 0 1024 1024" version="1.1" xmlns="http://www.w3.org/2000/svg" p-id="6688" xmlns:xlink="http://www.w3.org/1999/xlink" width="200" height="200"><path d="M649.22 955.56a40.14 40.14 0 0 1-21.22-6.07L342.18 771.57H64.27V258.66h277.91L628.41 80.47a39.9 39.9 0 0 1 61 33.87v801a40.18 40.18 0 0 1-40.18 40.18z m-520.95-248h232.21L625.4 872.49V157.74L360.48 322.66H128.27zM770.36 293.1a32 32 0 0 1-10.12-62.36l172.11-57.37a32 32 0 1 1 20.24 60.71l-172.11 57.37a31.91 31.91 0 0 1-10.12 1.65zM942.48 866.8a32 32 0 0 1-10.13-1.65l-172.11-57.37a32 32 0 0 1 20.24-60.72l172.11 57.37a32 32 0 0 1-10.11 62.37zM947.13 551.26H765.71a32 32 0 0 1 0-64h181.42a32 32 0 0 1 0 64z" p-id="6689" fill="#e6e6e6"></path></svg>