<?xml version="1.0" standalone="no"?><!DOCTYPE svg PUBLIC "-//W3C//DTD SVG 1.1//EN" "http://www.w3.org/Graphics/SVG/1.1/DTD/svg11.dtd"><svg t="1780553721705" class="icon" viewBox="0 0 1024 1024" version="1.1" xmlns="http://www.w3.org/2000/svg" p-id="5722" xmlns:xlink="http://www.w3.org/1999/xlink" width="200" height="200"><path d="M851.2 518.4H179.2c-19.2 0-32-12.8-32-32s12.8-32 32-32h672c19.2 0 32 12.8 32 32 0 12.8-19.2 32-32 32z" fill="#bfbfbf" p-id="5723"></path><path d="M211.2 486.4v224c0 19.2-12.8 32-32 32s-32-12.8-32-32V486.4c0-19.2 12.8-32 32-32 12.8 0 32 12.8 32 32zM883.2 486.4v224c0 19.2-12.8 32-32 32s-32-12.8-32-32V486.4c0-19.2 12.8-32 32-32 12.8 0 32 12.8 32 32z" fill="#bfbfbf" p-id="5724"></path><path d="M211.2 953.6h-64c-51.2 0-96-44.8-96-96v-64c0-51.2 44.8-96 96-96h64c51.2 0 96 44.8 96 96v64c0 57.6-44.8 96-96 96z m-64-192c-19.2 0-32 12.8-32 32v64c0 19.2 12.8 32 32 32h64c19.2 0 32-12.8 32-32v-64c0-19.2-12.8-32-32-32h-64zM544 288v422.4c0 12.8-12.8 25.6-25.6 25.6h-12.8c-12.8 0-25.6-12.8-25.6-25.6V288c0-12.8 12.8-25.6 25.6-25.6H512c19.2 0 32 6.4 32 25.6z" fill="#bfbfbf" p-id="5725"></path><path d="M544 953.6h-64c-51.2 0-96-44.8-96-96v-64c0-51.2 44.8-96 96-96h64c51.2 0 96 44.8 96 96v64c0 57.6-44.8 96-96 96z m-64-192c-19.2 0-32 12.8-32 32v64c0 19.2 12.8 32 32 32h64c19.2 0 32-12.8 32-32v-64c0-19.2-12.8-32-32-32h-64zM544 326.4h-64C428.8 326.4 384 281.6 384 230.4v-64c0-51.2 44.8-96 96-96h64c51.2 0 96 44.8 96 96v64c0 51.2-44.8 96-96 96z m-64-192c-19.2 0-32 12.8-32 32v64c0 19.2 12.8 32 32 32h64c19.2 0 32-19.2 32-32v-64c0-19.2-12.8-32-32-32h-64zM883.2 953.6h-64c-51.2 0-96-44.8-96-96v-64c0-51.2 44.8-96 96-96h64c51.2 0 96 44.8 96 96v64c0 57.6-44.8 96-96 96z m-64-192c-19.2 0-32 12.8-32 32v64c0 19.2 12.8 32 32 32h64c19.2 0 32-12.8 32-32v-64c0-19.2-12.8-32-32-32h-64z" fill="#bfbfbf" p-id="5726"></path></svg>