<?xml version="1.0" standalone="no"?><!DOCTYPE svg PUBLIC "-//W3C//DTD SVG 1.1//EN" "http://www.w3.org/Graphics/SVG/1.1/DTD/svg11.dtd"><svg t="1776074005532" class="icon" viewBox="0 0 1024 1024" version="1.1" xmlns="http://www.w3.org/2000/svg" p-id="8003" xmlns:xlink="http://www.w3.org/1999/xlink" width="200" height="200"><path d="M511.911657 724.961847a23.991929 23.991929 0 0 0 23.877135-23.877134v-168.364411a142.038339 142.038339 0 1 0-47.716005 0v168.364411a23.991929 23.991929 0 0 0 23.83887 23.877134z m-94.896304-331.256978a94.896304 94.896304 0 1 1 94.896304 94.896304 95.049363 95.049363 0 0 1-94.896304-94.934569z" fill="#dbdbdb" p-id="8004"></path><path d="M511.949922 739.158028a38.264639 38.264639 0 0 1-38.073316-38.073315v-156.272785a156.272785 156.272785 0 1 1 76.146632 0v156.272785a38.264639 38.264639 0 0 1-38.073316 38.073315z m0-473.333582a127.880423 127.880423 0 0 0-21.007287 254.000673l11.938568 2.257613v180.111655a9.642689 9.642689 0 0 0 19.132319 0v-180.111655l11.938567-2.257613a127.574306 127.574306 0 0 0 106.834872-126.273309 129.75539 129.75539 0 0 0-128.837039-127.727364z m0 236.360674a108.824633 108.824633 0 1 1 109.092485-108.518516 109.13075 109.13075 0 0 1-109.092485 108.556781z m0-189.218639a80.700123 80.700123 0 1 0 80.700123 80.700123 81.00624 81.00624 0 0 0-80.700123-80.661858z" fill="#dbdbdb" p-id="8005"></path><path d="M938.103205 440.846904a23.991929 23.991929 0 0 0-23.877135 23.877135v108.518515c1.147939 194.881806-321.422966 354.560143-402.314413 385.822354-80.700123-31.26221-403.424087-190.902283-402.314412-386.472852V157.8799a1057.290236 1057.290236 0 0 0 402.314412-96.044244h0.57397a1057.290236 1057.290236 0 0 0 402.314413 96.044244v116.898472a23.877135 23.877135 0 0 0 47.716004 0V135.724674a24.106722 24.106722 0 0 0-22.155226-23.877135A1034.140129 1034.140129 0 0 1 530.66133 17.525205a49.208326 49.208326 0 0 0-18.175703-3.405553 51.465939 51.465939 0 0 0-18.175704 3.405553A1033.374837 1033.374837 0 0 1 84.610435 112.421509a23.685811 23.685811 0 0 0-22.155226 23.877135v436.94391c-1.147939 256.37308 440.349464 436.216883 449.456448 436.216883s451.216621-179.843803 449.571242-436.216883v-108.518515a23.188371 23.188371 0 0 0-23.379694-23.877135z" fill="#dbdbdb" p-id="8006"></path><path d="M511.949922 1023.272972h-14.196181v-3.826464A1085.606069 1085.606069 0 0 1 161.331036 805.470648C85.184405 729.324016 47.111089 650.919771 47.685059 572.515526V135.839468a38.838608 38.838608 0 0 1 35.815702-38.073316A1017.839393 1017.839393 0 0 0 488.646757 4.591757a62.868802 62.868802 0 0 1 46.60633 0 1025.224468 1025.224468 0 0 0 405.107731 92.983072 38.838608 38.838608 0 0 1 35.815702 38.073316v139.206756a38.073316 38.073316 0 1 1-76.146631 0v-103.314525a1043.591495 1043.591495 0 0 1-388.079967-93.748365 1049.331191 1049.331191 0 0 1-388.079967 93.748365v401.778708c-1.147939 175.596428 281.819065 327.851426 388.079967 371.166996 106.834872-43.200777 389.227906-195.455775 388.079967-370.478233v-109.283808a38.073316 38.073316 0 0 1 76.146631 0v108.518515c0.57397 77.830275-38.073316 156.272785-113.645977 232.955122a1084.764246 1084.764246 0 0 1-335.81047 213.631478v3.826464z m0-14.196181z m0-980.186989a30.611711 30.611711 0 0 0-12.512537 2.257614A1034.446246 1034.446246 0 0 1 85.758375 126.04372a9.872277 9.872277 0 0 0-9.106985 9.642689v436.982176c-1.147939 228.975599 385.248384 405.605172 435.834237 421.599791 50.011883-15.91809 436.943911-192.624192 435.834236-421.599791v-107.944546a9.56616 9.56616 0 0 0-9.642689-9.642689 9.260043 9.260043 0 0 0-9.642689 9.642689v108.518515c1.147939 230.697508-407.40361 397.760921-411.383132 399.444565l-5.127462 2.257614-5.127461-2.257614a1134.6996 1134.6996 0 0 1-235.251-133.543589c-117.6255-88.659168-176.706102-177.854041-176.017338-265.93924V144.640335l13.086506-1.147939a1046.729195 1046.729195 0 0 0 397.760921-94.896305l2.831583-1.147939h5.701431l2.831584 1.147939a1047.111842 1047.111842 0 0 0 398.33489 94.896305l13.086506 1.147939v130.099772a9.56616 9.56616 0 0 0 9.642689 9.642689 9.260043 9.260043 0 0 0 9.642689-9.642689V135.839468a9.872277 9.872277 0 0 0-9.106984-9.642689A1054.114271 1054.114271 0 0 1 526.260897 31.300475a45.917567 45.917567 0 0 0-14.310975-2.410673z" fill="#dbdbdb" p-id="8007"></path></svg>