<svg t="1721805699984" class="icon" viewBox="0 0 1024 1024" version="1.1" xmlns="http://www.w3.org/2000/svg" p-id="24616" width="200" height="200"><path d="M749.714286 102.4a201.142857 201.142857 0 1 1 0 402.285714h-475.428572a201.142857 201.142857 0 0 1 0-402.285714h475.428572z m0 87.771429h-475.428572a113.371429 113.371429 0 0 0-10.313143 226.304l10.313143 0.438857h475.428572a113.371429 113.371429 0 0 0 10.313143-226.304L749.714286 190.171429z" fill="#e6e6e6" p-id="24617"></path><path d="M219.428571 303.542857a54.857143 54.857143 0 1 0 109.714286 0 54.857143 54.857143 0 0 0-109.714286 0z" fill="#e6e6e6" p-id="24618"></path><path d="M749.714286 541.257143a201.142857 201.142857 0 1 1 0 402.285714h-475.428572a201.142857 201.142857 0 1 1 0-402.285714h475.428572z m0 87.771428h-475.428572a113.371429 113.371429 0 0 0-10.313143 226.304l10.313143 0.438858h475.428572a113.371429 113.371429 0 0 0 10.313143-226.304L749.714286 629.028571z" fill="#e6e6e6" p-id="24619"></path><path d="M694.857143 742.4a54.857143 54.857143 0 1 0 109.714286 0 54.857143 54.857143 0 0 0-109.714286 0z" fill="#e6e6e6" p-id="24620"></path></svg>
