<svg t="1721806480484" class="icon" viewBox="0 0 1024 1024" version="1.1" xmlns="http://www.w3.org/2000/svg" p-id="49317" width="200" height="200"><path d="M693.333333 490.666667h-362.666666c-29.866667 0-53.333333-23.466667-53.333334-53.333334v-362.666666C277.333333 44.8 300.8 21.333333 330.666667 21.333333h362.666666C723.2 21.333333 746.666667 44.8 746.666667 74.666667v362.666666c0 29.866667-23.466667 53.333333-53.333334 53.333334zM341.333333 426.666667h341.333334V85.333333H341.333333v341.333334zM437.333333 1002.666667h-362.666666C44.8 1002.666667 21.333333 979.2 21.333333 949.333333v-362.666666C21.333333 556.8 44.8 533.333333 74.666667 533.333333h362.666666c29.866667 0 53.333333 23.466667 53.333334 53.333334v362.666666c0 29.866667-23.466667 53.333333-53.333334 53.333334zM85.333333 938.666667h341.333334V597.333333H85.333333v341.333334zM949.333333 1002.666667h-362.666666c-29.866667 0-53.333333-23.466667-53.333334-53.333334v-362.666666c0-29.866667 23.466667-53.333333 53.333334-53.333334h362.666666c29.866667 0 53.333333 23.466667 53.333334 53.333334v362.666666c0 29.866667-23.466667 53.333333-53.333334 53.333334zM597.333333 938.666667h341.333334V597.333333H597.333333v341.333334z" p-id="49318" fill="#e6e6e6"></path><path d="M576 362.666667h-128c-17.066667 0-32-14.933333-32-32S430.933333 298.666667 448 298.666667h128c17.066667 0 32 14.933333 32 32S593.066667 362.666667 576 362.666667zM320 874.666667H192c-17.066667 0-32-14.933333-32-32S174.933333 810.666667 192 810.666667h128c17.066667 0 32 14.933333 32 32S337.066667 874.666667 320 874.666667zM832 874.666667h-128c-17.066667 0-32-14.933333-32-32S686.933333 810.666667 704 810.666667h128c17.066667 0 32 14.933333 32 32S849.066667 874.666667 832 874.666667z" p-id="49319" fill="#e6e6e6"></path></svg>
