<svg t="1721805946040" class="icon" viewBox="0 0 1024 1024" version="1.1" xmlns="http://www.w3.org/2000/svg" p-id="31244" width="200" height="200"><path d="M25.5 617.4h973.2c14.1 0 25.5-11.4 25.5-25.5V446.5c0-14.1-11.4-25.5-25.5-25.5H25.5C11.4 421 0 432.4 0 446.5v145.4c0 14.1 11.4 25.5 25.5 25.5zM25.5 986.2h973.2c14.1 0 25.5-11.4 25.5-25.5V815.3c0-14.1-11.4-25.5-25.5-25.5H25.5C11.4 789.9 0 801.3 0 815.3v145.4c0 14.1 11.4 25.5 25.5 25.5zM0 68.4v145.4c0 14.1 11.4 25.5 25.5 25.5h973.2c14.1 0 25.5-11.4 25.5-25.5V68.4c0-14.1-11.4-25.5-25.5-25.5H25.5C11.4 42.9 0 54.3 0 68.4z" fill="#e6e6e6" p-id="31245"></path></svg>
