<?xml version="1.0" standalone="no"?><!DOCTYPE svg PUBLIC "-//W3C//DTD SVG 1.1//EN" "http://www.w3.org/Graphics/SVG/1.1/DTD/svg11.dtd"><svg t="1759989930653" class="icon" viewBox="0 0 1024 1024" version="1.1" xmlns="http://www.w3.org/2000/svg" p-id="4774" xmlns:xlink="http://www.w3.org/1999/xlink" width="200" height="200"><path d="M62.122667 92.770987v827.96544c0 21.599573 14.404267 35.9936 36.010666 35.9936h194.321067V63.972693H90.9312c-14.404267 0-28.808533 14.39744-28.808533 28.798294z m604.637866 467.968a72.147627 72.147627 0 0 0-71.9872 71.994026c0 35.997013 35.976533 71.99744 71.9872 71.99744s71.9872-36.000427 71.9872-71.99744a72.147627 72.147627 0 0 0-71.9872-71.994026z m0 0l-302.318933 395.977386h561.425067c21.6064 0 36.010667-14.394027 36.010666-35.9936V315.958613H364.4416v640.771414z m-179.950933 14.40768a157.180587 157.180587 0 0 1 35.976533-57.6c7.202133-7.195307 7.202133-7.195307 14.404267-7.195307l35.976533 14.39744q21.6064-21.59616 43.2128-21.599573l7.202134-36.000427c0-7.195307 7.168-7.195307 14.370133-14.39744a99.826347 99.826347 0 0 1 64.785067 0c7.202133 0 7.202133 7.202133 14.404266 14.39744l7.202134 36.000427 43.178666 21.599573 28.7744-14.39744c7.202133 0 14.404267 0 14.404267 7.195307a156.801707 156.801707 0 0 1 36.010667 57.6c0 7.202133 0 14.400853-7.202134 14.400853l-28.808533 21.599573V654.336l28.808533 21.59616c7.202133 7.202133 7.202133 7.202133 7.202134 14.404267a156.719787 156.719787 0 0 1-36.010667 57.593173c-7.202133 7.202133-7.202133 7.202133-14.404267 7.202133l-35.976533-14.39744c-14.404267 7.195307-28.7744 21.599573-43.178667 21.599574l-7.202133 35.9936c0 7.19872-7.202133 7.19872-14.404267 14.400853h-71.953066c-7.202133 0-7.202133-7.202133-14.404267-14.400853l-7.202133-35.9936-43.178667-21.599574-36.010667 14.39744c-7.202133 0-14.370133 0-14.370133-7.202133s-14.404267-21.599573-21.6064-43.195733c0-7.202133 0-14.39744 7.202133-14.39744l28.7744-21.602987v-43.188907l-28.7744-35.9936c-7.202133 0-7.202133-7.19872-7.202133-14.400853zM925.866667 63.972693H364.4416v187.194027h590.2336v-158.378667c0-14.400853-14.404267-28.798293-28.808533-28.798293z m0 0" fill="#dbdbdb" p-id="4775"></path></svg>