<?xml version="1.0" standalone="no"?><!DOCTYPE svg PUBLIC "-//W3C//DTD SVG 1.1//EN" "http://www.w3.org/Graphics/SVG/1.1/DTD/svg11.dtd"><svg t="1765535022575" class="icon" viewBox="0 0 1024 1024" version="1.1" xmlns="http://www.w3.org/2000/svg" p-id="9278" xmlns:xlink="http://www.w3.org/1999/xlink" width="200" height="200"><path d="M863.111529 96.256c55.416471 0 100.352 44.935529 100.352 100.412235V899.312941c0 55.476706-44.935529 100.412235-100.352 100.412235H160.346353c-55.416471 0-100.412235-44.935529-100.412235-100.412235V196.668235c0-55.416471 44.995765-100.412235 100.412235-100.412235z m0 60.235294H160.346353a40.176941 40.176941 0 0 0-40.176941 40.176941V899.312941c0 22.226824 18.010353 40.176941 40.176941 40.176941h702.765176a40.176941 40.176941 0 0 0 40.116706-40.176941V196.668235a40.176941 40.176941 0 0 0-40.116706-40.176941z m-117.157647 220.882824h1.325177c0.843294 0 1.686588 0.120471 2.529882 0.240941l-3.855059-0.240941a30.238118 30.238118 0 0 1 21.263059 8.794353l0.722824 0.662588a30.298353 30.298353 0 0 1 2.048 2.529882l-2.770824-3.19247a30.238118 30.238118 0 0 1 8.854588 21.323294v187.331764a30.117647 30.117647 0 1 1-60.235294 0v-114.447058l-194.861176 195.644235a30.117647 30.117647 0 0 1-42.586353 0l-81.558588-81.317647-111.194353 111.314823a30.117647 30.117647 0 0 1-38.430118 3.493647l-4.156235-3.493647a30.117647 30.117647 0 0 1 0-42.586353l132.517647-132.517647a30.117647 30.117647 0 0 1 42.586353 0l81.377882 81.197177 173.899294-174.622118-114.868706 0.120471a30.117647 30.117647 0 0 1-29.635764-24.696471l-0.481883-5.421176a30.117647 30.117647 0 0 1 30.117647-30.117647h187.392z" p-id="9279" fill="#e6e6e6"></path></svg>