<?xml version="1.0" standalone="no"?><!DOCTYPE svg PUBLIC "-//W3C//DTD SVG 1.1//EN" "http://www.w3.org/Graphics/SVG/1.1/DTD/svg11.dtd"><svg t="1781333686408" class="icon" viewBox="0 0 1024 1024" version="1.1" xmlns="http://www.w3.org/2000/svg" p-id="4872" xmlns:xlink="http://www.w3.org/1999/xlink" width="200" height="200"><path d="M805 415.7l-37.2-27.9c15.1-20.2 23.1-44.2 23.1-69.5 0-30.9-12.1-60-34-81.9-21.9-21.8-50.9-33.9-81.8-33.9h-0.1c-38.5 0-74.4 19.2-96 51.2l-38.5-26C570.7 183 621 156.2 675 156.1h0.1c43.3 0 84 16.8 114.7 47.4 30.7 30.6 47.6 71.4 47.6 114.7 0.1 35.6-11.1 69.3-32.4 97.5z" fill="#bfbfbf" p-id="4873"></path><path d="M685.1 480.5l-2.8-46.4c33.9-2.1 65.1-18.9 85.6-46.2l37.2 27.9c-28.7 38.2-72.5 61.8-120 64.7z" fill="#bfbfbf" p-id="4874"></path><path d="M938.3 846.3c-12.8 0-23.2-10.4-23.2-23.2V527c0-49.5-48.5-92.5-110.6-98.1h-20.8c-12.8 0-23.2-10.4-23.2-23.2 0-12.8 10.4-23.2 23.2-23.2l23.7 0.1c87.9 7.4 154.1 69.5 154.1 144.5v296.1c0 12.7-10.4 23.1-23.2 23.1z" fill="#bfbfbf" p-id="4875"></path><path d="M401.6 482.7c-50.7 0-98.4-19.7-134.3-55.6-35.9-35.9-55.7-83.6-55.8-134.4 0-50.8 19.7-98.5 55.6-134.5 35.9-35.9 83.6-55.8 134.4-55.8h0.2c50.7 0 98.4 19.7 134.3 55.6 35.9 35.9 55.8 83.6 55.8 134.4 0 41.5-13.1 81-37.9 114.1-36.3 48.3-91.7 76.1-152 76.2h-0.3z m0-333.8h-0.1c-38.4 0-74.4 15-101.5 42.2s-42 63.2-42 101.6c0 38.4 15 74.4 42.2 101.5 27.1 27.1 63.2 42 101.5 42h0.1c45.6 0 87.5-21 114.9-57.6 18.8-25 28.7-54.8 28.6-86.2 0-38.4-15-74.4-42.2-101.5-27.2-27.1-63.2-42-101.5-42z" fill="#bfbfbf" p-id="4876"></path><path d="M86.5 921.5c-12.8 0-23.2-10.4-23.2-23.2L63 543.1c-0.1-87.5 77.5-160.1 180.5-168.9l2-0.1h26.1c12.8 0 23.2 10.4 23.2 23.2 0 12.8-10.4 23.2-23.2 23.3h-25.1c-77 7-137.1 60.6-137.1 122.5l0.3 355.3c0.1 12.7-10.3 23.1-23.2 23.1 0.1 0 0 0 0 0zM717.4 921.3c-12.8 0-23.2-10.4-23.2-23.2V542.8c0-61.9-60.2-115.5-137.2-122.4h-25.1c-12.8 0-23.2-10.4-23.2-23.2 0-12.8 10.4-23.2 23.2-23.2l28.1 0.1c103 8.7 180.7 81.2 180.7 168.8v355.3c-0.1 12.7-10.5 23.1-23.3 23.1z" fill="#bfbfbf" p-id="4877"></path></svg>