<?xml version="1.0" standalone="no"?><!DOCTYPE svg PUBLIC "-//W3C//DTD SVG 1.1//EN" "http://www.w3.org/Graphics/SVG/1.1/DTD/svg11.dtd"><svg t="1781875121123" class="icon" viewBox="0 0 1024 1024" version="1.1" xmlns="http://www.w3.org/2000/svg" p-id="4947" xmlns:xlink="http://www.w3.org/1999/xlink" width="200" height="200"><path d="M872.013267 149.439469a509.452736 509.452736 0 0 0-720.592593 0l-3.96241 4.528469a509.452736 509.452736 0 0 0 716.630183 722.856827l4.528468-3.96241a509.452736 509.452736 0 0 0 3.396352-723.422886z m-47.548922 687.195136c-38.491985 34.529574-143.212825 7.358762-262.651189-69.059149a83.776672 83.776672 0 0 0 3.396352-39.058043c28.868988-24.34052 56.60586-49.813156 86.606965-78.116086a1271.367606 1271.367606 0 0 0 92.267551-103.022665c88.8712 131.891653 121.13654 245.103372 83.210614 286.42565z m-632.85351-6.792703c-30.567164-30.567164 0-131.891653 79.248203-250.1979a1159.854063 1159.854063 0 0 0 80.946379 90.003317c16.415699 16.415699 33.397457 32.26534 50.379215 46.982863a83.776672 83.776672 0 0 0 3.396352 56.60586c-101.890547 61.700387-186.233278 83.776672-213.970149 56.60586zM185.38419 196.422333c36.793809-33.963516 135.854063-10.189055 250.1979 60.56827a84.342731 84.342731 0 0 0 0 53.775566c-22.076285 19.245992-44.718629 39.624102-66.794915 61.700387a1264.008845 1264.008845 0 0 0-101.890547 113.211719C180.855721 354.91874 148.024323 237.74461 185.38419 196.422333z m206.611388 433.034826a1087.398563 1087.398563 0 0 1-86.606966-97.928137 1182.496407 1182.496407 0 0 1 106.419017-122.268657c20.944168-20.944168 41.888336-40.19016 63.398562-56.60586a82.644555 82.644555 0 0 0 90.003317-2.830293c18.679934 16.415699 37.925926 33.397457 56.60586 52.077391a1087.398563 1087.398563 0 0 1 87.739082 99.626313 1188.723051 1188.723051 0 0 1-97.362079 109.815368c-24.34052 24.34052-48.681039 45.850746-73.021558 66.794914a83.210614 83.210614 0 0 0-103.588723-5.660586c-14.717523-15.283582-29.435047-28.30293-43.586512-43.020453z m206.611387-371.334439c113.211719-70.757324 204.347153-97.928137 233.7822-69.059149s0 139.816473-88.305141 263.217247a1158.155887 1158.155887 0 0 0-82.644555-92.267551c-20.944168-20.944168-41.888336-39.624102-62.832504-56.60586a83.776672 83.776672 0 0 0 0-45.284687z m181.138751 241.70702a627.758983 627.758983 0 0 0 113.211719-234.348259 452.846877 452.846877 0 0 1 0 484.546159 607.946932 607.946932 0 0 0-112.645661-250.1979z m-24.34052-371.900497A569.454947 569.454947 0 0 0 568.60586 211.705915a82.644555 82.644555 0 0 0-92.83361 0 550.775014 550.775014 0 0 0-204.347153-85.474848 452.846877 452.846877 0 0 1 483.980099 1.698176zM119.155334 283.029298a622.664456 622.664456 0 0 0 113.21172 246.801548 609.645108 609.645108 0 0 0-104.154782 220.762852A452.846877 452.846877 0 0 1 119.155334 283.029298z m150.005528 608.512991a556.4356 556.4356 0 0 0 177.176341-76.983969 83.210614 83.210614 0 0 0 78.682145-3.962411A583.040354 583.040354 0 0 0 738.423438 902.297402a452.846877 452.846877 0 0 1-469.262576-10.755113z" p-id="4948" fill="#bfbfbf"></path></svg>