<?xml version="1.0" standalone="no"?><!DOCTYPE svg PUBLIC "-//W3C//DTD SVG 1.1//EN" "http://www.w3.org/Graphics/SVG/1.1/DTD/svg11.dtd"><svg t="1758902853227" class="icon" viewBox="0 0 1024 1024" version="1.1" xmlns="http://www.w3.org/2000/svg" p-id="1586" xmlns:xlink="http://www.w3.org/1999/xlink" width="200" height="200"><path d="M378.88 643.584c0 75.264 61.44 136.704 136.704 136.704s136.704-61.44 136.704-136.704V465.92H378.88v177.664z m81.92-102.4h116.224v102.4c0 34.304-27.136 54.784-54.784 54.784-34.304 0-54.784-27.136-54.784-54.784v-102.4H460.8z" fill="#e6e6e6" p-id="1587"></path><path d="M1014.272 438.272L535.552 48.64a32.512 32.512 0 0 0-47.616 0L16.384 438.272c-20.48 13.824-20.48 40.96-6.656 54.784 6.656 13.824 13.824 13.824 27.136 20.48 13.824 0 20.48 0 27.136-6.656l20.48-20.48v355.328c0 81.92 61.44 143.36 143.36 143.36h567.296c81.92 0 143.36-68.608 143.36-143.36V486.4l20.48 20.48c6.656 0 20.48 6.656 27.136 6.656 13.824 0 20.48-6.656 27.136-13.824 6.656-6.656 6.656-20.48 6.656-27.136 8.192-13.312 1.024-27.136-5.632-34.304z m-211.968 472.064H228.352c-34.304 0-61.44-27.136-61.44-68.608V417.792l348.672-280.064 348.672 287.232v416.768c-0.512 34.304-27.648 61.44-61.952 68.608z" fill="#e6e6e6" p-id="1588"></path></svg>