<svg t="1721806010110" class="icon" viewBox="0 0 1024 1024" version="1.1" xmlns="http://www.w3.org/2000/svg" p-id="32500" width="200" height="200"><path d="M601.78432 528.09728c59.1872 0 109.3632 38.66624 126.68928 92.11904h47.39072a40.96 40.96 0 1 1 0 81.92h-47.39072a133.16096 133.16096 0 0 1-253.41952-0.04096H243.38432a40.96 40.96 0 1 1 0-81.92l231.71072-0.04096a133.16096 133.16096 0 0 1 126.68928-92.03712z m0 81.92a51.2 51.2 0 1 0 0 102.4 51.2 51.2 0 0 0 0-102.4zM429.99808 204.8c59.26912 0 109.48608 38.7072 126.73024 92.24192h221.02016a40.96 40.96 0 0 1 0 81.92l-221.06112 0.04096a133.16096 133.16096 0 0 1-253.37856-0.08192L243.38432 378.88a40.96 40.96 0 1 1 0-81.92h59.92448A133.16096 133.16096 0 0 1 429.99808 204.8z m0 81.92a51.2 51.2 0 1 0 0 102.4 51.2 51.2 0 0 0 0-102.4z" fill="#e6e6e6" p-id="32501"></path></svg>
