<?xml version="1.0" standalone="no"?><!DOCTYPE svg PUBLIC "-//W3C//DTD SVG 1.1//EN" "http://www.w3.org/Graphics/SVG/1.1/DTD/svg11.dtd"><svg t="1778141800818" class="icon" viewBox="0 0 1024 1024" version="1.1" xmlns="http://www.w3.org/2000/svg" p-id="12779" xmlns:xlink="http://www.w3.org/1999/xlink" width="200" height="200"><path d="M559.309 448.39h-21.422v119.848h21.422c35.143 0 51.937-13.189 51.937-59.679 0-48.865-17.613-60.17-51.937-60.17z m0 0h-21.422v119.848h21.422c35.143 0 51.937-13.189 51.937-59.679 0-48.865-17.613-60.17-51.937-60.17zM719.258 82.533H304.25A204.513 204.513 0 0 0 99.697 287.048v415.047A204.513 204.513 0 0 0 304.25 906.61h415.007a204.513 204.513 0 0 0 204.554-204.514V287.048A204.513 204.513 0 0 0 719.258 82.534zM288.072 606.74c-55.214 0-86.59-20.316-86.59-98.058s31.376-98.099 86.59-98.099c55.787 0 86.548 20.357 86.548 98.1 0 77.741-30.76 98.057-86.548 98.057z m165.683-2.744h-41.78v-190.75h41.78v190.75z m107.725 0h-65.413v-190.75h65.454c56.074 0 92.897 15.892 92.897 95.313 0 73.687-36.823 95.437-92.897 95.437z m264.11-5.284c-11.182 4.67-28.263 7.947-46.449 7.947-55.787 0-92.324-18.35-92.324-98.1 0-73.687 36.045-98.099 92.037-98.099 18.146 0 32.932 2.171 44.565 6.349v36.045a128.205 128.205 0 0 0-41.78-6.554c-34.406 0-49.479 15.401-49.479 62.177 0 49.726 15.114 62.137 48.947 62.137a126.976 126.976 0 0 0 44.483-7.455v35.553zM559.35 448.39h-21.463v119.85h21.422c35.143 0 51.937-13.19 51.937-59.68 0-48.865-17.613-60.17-51.937-60.17z m-271.278-3.85c-34.857 0-42.599 17.572-42.599 64.02 0 46.777 7.742 63.243 42.599 63.243 35.143 0 42.885-16.466 42.885-63.243-0.123-46.366-7.783-64.02-42.885-64.02z m271.237 3.85h-21.422v119.85h21.422c35.143 0 51.937-13.19 51.937-59.68 0-48.865-17.613-60.17-51.937-60.17z m0 0h-21.422v119.85h21.422c35.143 0 51.937-13.19 51.937-59.68 0-48.865-17.613-60.17-51.937-60.17z" fill="#F38019" p-id="12780"></path></svg>