<?xml version="1.0" standalone="no"?><!DOCTYPE svg PUBLIC "-//W3C//DTD SVG 1.1//EN" "http://www.w3.org/Graphics/SVG/1.1/DTD/svg11.dtd"><svg t="1778124532593" class="icon" viewBox="0 0 1024 1024" version="1.1" xmlns="http://www.w3.org/2000/svg" p-id="9919" xmlns:xlink="http://www.w3.org/1999/xlink" width="200" height="200"><path d="M526.12 63.87h-23.28c-128.98 0-233.82 104.97-233.82 233.82v90.03c0 28.9 23.4 52.3 52.18 52.3h386.32c28.79 0 52.3-23.52 52.43-52.18v-90.15c0-128.97-104.97-233.82-233.83-233.82z m160.95 303.52H341.66V297.7c0-88.8 72.27-161.19 161.07-161.07H526c88.8 0 161.07 72.27 161.07 161.07v69.69z" fill="#CE0401" p-id="9920"></path><path d="M785.67 960.22H243.05c-66.51 0-120.77-54.14-120.77-120.77V488.16c0-66.63 54.26-120.78 120.77-120.78h542.62c66.51 0 120.77 54.14 120.77 120.78v351.29c0 66.63-54.14 120.77-120.77 120.77z m-542.62-520.2c-26.58 0-48.13 21.56-48.13 48.14v351.29c0 26.58 21.56 48.14 48.13 48.14h542.62c26.58 0 48.13-21.55 48.13-48.14V488.16c0-26.58-21.55-48.14-48.13-48.14H243.05z m0 0" p-id="9921"></path><path d="M514.36 589.7l-3.92 3.92c0 2.08 1.72 3.8 3.92 3.8v-7.72z" p-id="9922"></path><path d="M583.08 593.5c0-37.97-30.87-68.84-68.72-68.84-37.97 0-68.83 30.87-68.83 68.84 0 24.62 12.98 46.23 32.46 58.4v85.76c0 20.09 16.29 36.38 36.38 36.38 20.09 0 36.38-16.29 36.38-36.38v-85.81c19.38-12.18 32.33-33.77 32.33-58.35z" fill="#FFDDDD" p-id="9923"></path></svg>