<?xml version="1.0" standalone="no"?><!DOCTYPE svg PUBLIC "-//W3C//DTD SVG 1.1//EN" "http://www.w3.org/Graphics/SVG/1.1/DTD/svg11.dtd"><svg t="1778124492432" class="icon" viewBox="0 0 1024 1024" version="1.1" xmlns="http://www.w3.org/2000/svg" p-id="6002" xmlns:xlink="http://www.w3.org/1999/xlink" width="200" height="200"><path d="M722.595153 496.282518h-241.139882v-179.190996l240.807099-34.967843 0.332783 214.158839z m0 243.699754l-241.139882-34.711856V525.28586h240.909494l0.255987 214.696412zM452.60552 492.084329h-182.416433v-147.832572l182.646822-24.830752-0.230389 172.663324z m0 209.730261l-182.416433-25.163536v-151.467588h182.416433v176.631124zM874.037144 150.008718A511.001522 511.001522 0 0 0 512.045734 0.000256 511.001522 511.001522 0 0 0 150.028725 150.008718c-200.028349 200.489125-200.028349 523.493694 0 723.98282a511.001522 511.001522 0 0 0 361.965811 150.008462 511.001522 511.001522 0 0 0 361.99141-150.008462c199.977151-200.514724 199.977151-523.468096 0-723.98282z" fill="#3296FA" p-id="6003"></path></svg>